<svg xmlns="http://www.w3.org/2000/svg" xmlns:xlink="http://www.w3.org/1999/xlink" width="105" height="103" viewBox="0 0 105 103">
  <defs>
    <clipPath id="clip-path">
      <rect id="Rectángulo_348373" data-name="Rectángulo 348373" width="49" height="49" fill="none"/>
    </clipPath>
  </defs>
  <g id="Grupo_1084274" data-name="Grupo 1084274" transform="translate(-285 -3387)">
    <ellipse id="Elipse_5344" data-name="Elipse 5344" cx="52.5" cy="51.5" rx="52.5" ry="51.5" transform="translate(285 3387)" fill="#ffd947"/>
    <ellipse id="Elipse_5345" data-name="Elipse 5345" cx="42.5" cy="41.5" rx="42.5" ry="41.5" transform="translate(295 3397)" fill="#fff"/>
    <g id="Grupo_1083517" data-name="Grupo 1083517" transform="translate(313 3414)">
      <g id="Grupo_1005846" data-name="Grupo 1005846" clip-path="url(#clip-path)">
        <path id="Trazado_206213" data-name="Trazado 206213" d="M199.8,65.952a2.469,2.469,0,0,1-2.83,1.884q-3.038.007-6.075,0a2.317,2.317,0,0,1-2.527-2.527c-.006-.634,0-1.269,0-1.949h-6.36c-.128,0-.256.007-.383,0a.765.765,0,0,1-.782-.789.716.716,0,0,1,.816-.731c2.041-.006,4.082,0,6.123-.005h.585c0-.639,0-1.241,0-1.842,0-.494-.016-.99.023-1.482a2.266,2.266,0,0,1,2.291-2.117c.829-.01,1.658-.007,2.487-.012.028,0,.055-.023.082-.035a2.37,2.37,0,0,0-1.655-2.953,3.368,3.368,0,0,0-.851-.073q-11.385,0-22.77,0a2.515,2.515,0,0,1-.662-.049.7.7,0,0,1-.543-.835.673.673,0,0,1,.7-.647c.366-.018.733-.014,1.1-.014q11.05,0,22.1,0a3.8,3.8,0,0,1,4.1,3.15,11.158,11.158,0,0,1,.094,1.468c.65,0,1.287.042,1.916-.008A2.644,2.644,0,0,1,199.8,58.2Zm-1.529-3.834q0-1.6,0-3.2c0-.711-.273-1-.969-1q-3.226-.007-6.452,0c-.668,0-.948.251-.951.912q-.016,3.3,0,6.592c0,.609.282.883.883.884q3.3.01,6.6-.007c.621,0,.886-.3.889-.928,0-1.083,0-2.167,0-3.25" transform="translate(-150.804 -46.811)" fill="#1a1818"/>
        <path id="Trazado_206214" data-name="Trazado 206214" d="M0,171.765c.627-1.506,1.185-1.879,2.828-1.884.684,0,1.368,0,2.129,0,0-.223,0-.407,0-.591,0-2.377-.018-4.753.016-7.129a5.272,5.272,0,0,1,4.066-5.088,4.494,4.494,0,0,1,1.037-.137c2.791-.013,5.582-.012,8.374-.011.564,0,.874.258.888.713.015.5-.309.81-.905.812-2.648.007-5.3.058-7.943-.012a3.907,3.907,0,0,0-4,4c.06,2.327.013,4.657.013,6.986v.46c.289,0,.552,0,.815,0,.733.015,1.471-.02,2.2.064a2.127,2.127,0,0,1,1.89,2.025c.047.9.01,1.812.01,2.769h.581q2.967,0,5.933,0c.358,0,.707.081.82.443a.913.913,0,0,1-.063.743,1.143,1.143,0,0,1-.772.331c-1.962.027-3.924.014-5.885.014h-.586c0,.844.019,1.654-.008,2.462a3.359,3.359,0,0,1-.184,1.167,2.205,2.205,0,0,1-2.137,1.42c-2.265.024-4.53.028-6.794,0A2.238,2.238,0,0,1,.143,179.8c-.039-.1-.1-.189-.143-.283v-7.752m1.529,3.78c0,1.1,0,2.2,0,3.3,0,.644.284.943.925.945q3.277.012,6.554,0a.792.792,0,0,0,.9-.881q.015-3.3,0-6.6c0-.629-.285-.9-.923-.9q-3.275-.01-6.55.006c-.627,0-.9.294-.9.92,0,1.068,0,2.137,0,3.205" transform="translate(0 -141.906)" fill="#1a1818"/>
        <path id="Trazado_206215" data-name="Trazado 206215" d="M320.853,359.225a2.349,2.349,0,0,1-1.839-2.116c-.045-.618-.02-1.242-.026-1.863,0-.188,0-.376,0-.611-.543,0-1.032,0-1.522,0-.54-.007-.842-.281-.845-.755s.305-.755.842-.767c.491-.011.982,0,1.527,0,0-.965.008-1.886,0-2.807a2.385,2.385,0,0,1,.774-1.926,2.3,2.3,0,0,1,1.621-.579c.826.01,1.651,0,2.466,0a2.445,2.445,0,0,0-2.476-3.206c-3.06,0-6.12,0-9.18-.007a.8.8,0,0,1-.983-.822c.02-.225.272-.454.47-.627.1-.087.3-.074.458-.074,3.124,0,6.248-.012,9.372,0a3.858,3.858,0,0,1,3.883,3.158,12,12,0,0,1,.1,1.572h2.057c1.715,0,2.236.337,2.88,1.861v7.752a2.814,2.814,0,0,1-1.818,1.818Zm8.041-5.714c0-1.084,0-2.167,0-3.251,0-.636-.255-.939-.874-.944q-3.322-.023-6.644,0a.754.754,0,0,0-.854.864q-.017,3.321,0,6.641c0,.627.292.872.94.873q3.251,0,6.5,0c.641,0,.928-.29.931-.932,0-1.084,0-2.167,0-3.251" transform="translate(-281.424 -310.225)" fill="#1a1818"/>
        <path id="Trazado_206216" data-name="Trazado 206216" d="M9.57,0a6.686,6.686,0,0,1,1.036.554,2.333,2.333,0,0,1,.836,1.993c-.006.778,0,1.557,0,2.411.525,0,1.011-.006,1.5,0,.568.008.911.3.911.759a.826.826,0,0,1-.91.778c-.477.01-.953,0-1.5,0,0,.774.013,1.517-.006,2.26A4.109,4.109,0,0,1,11.3,9.84a2.133,2.133,0,0,1-2.009,1.567c-2.359.031-4.719.037-7.078.006A2.321,2.321,0,0,1,0,9.57V1.818A2.808,2.808,0,0,1,1.818,0ZM1.529,5.687c0,1.083,0,2.166,0,3.25,0,.686.261.972.945.975q3.25.015,6.5,0c.658,0,.929-.275.931-.939q.014-3.248,0-6.5c0-.686-.282-.945-.97-.946q-3.226,0-6.451,0c-.673,0-.953.282-.956.955,0,1.067,0,2.135,0,3.2" fill="#1a1818"/>
        <path id="Trazado_206217" data-name="Trazado 206217" d="M173.61,154.882a3,3,0,0,1-.392.56c-.407.38-.836.739-1.277,1.08a.7.7,0,0,0-.245.7,22.135,22.135,0,0,1-.007,2.332.668.668,0,0,0,.25.655c.425.335.837.687,1.248,1.041a.76.76,0,0,1,.225,1.129q-.642,1.145-1.315,2.274a.784.784,0,0,1-1.089.4c-.526-.179-1.038-.4-1.571-.56a.863.863,0,0,0-.592.077c-.753.405-1.494.835-2.226,1.278a.718.718,0,0,0-.3.409c-.123.558-.2,1.126-.3,1.689a.806.806,0,0,1-.845.746c-.893.013-1.786.012-2.679,0a.8.8,0,0,1-.862-.726c-.105-.562-.179-1.131-.307-1.687a.786.786,0,0,0-.329-.443q-1.074-.656-2.183-1.256a.87.87,0,0,0-.589-.094c-.549.158-1.079.379-1.62.566a.76.76,0,0,1-1.049-.381q-.684-1.149-1.336-2.317a.74.74,0,0,1,.22-1.091c.434-.375.891-.724,1.307-1.118a.808.808,0,0,0,.2-.523q.031-1.259,0-2.519a.809.809,0,0,0-.21-.522c-.417-.393-.874-.742-1.309-1.116a.743.743,0,0,1-.2-1.094c.434-.779.883-1.549,1.332-2.319a.781.781,0,0,1,1.054-.377c.52.2,1.036.41,1.569.563a.931.931,0,0,0,.629-.091c.741-.395,1.468-.816,2.188-1.249a.726.726,0,0,0,.321-.4c.127-.557.206-1.125.307-1.688a.808.808,0,0,1,.872-.769q1.315-.015,2.631,0a.806.806,0,0,1,.885.753c.1.547.171,1.1.3,1.641a.847.847,0,0,0,.355.468c.7.432,1.44.807,2.131,1.255a.662.662,0,0,0,.693.089c.531-.212,1.074-.4,1.61-.595a.682.682,0,0,1,.883.268c.523.855,1.01,1.732,1.507,2.6a2.332,2.332,0,0,1,.118.358m-2.545-1.579c-.58.206-1.129.37-1.651.6a.989.989,0,0,1-1.2-.244,5.529,5.529,0,0,0-2.454-1.418,1.089,1.089,0,0,1-.885-1.035c-.07-.544-.193-1.08-.291-1.614h-1.527c-.1.572-.205,1.133-.3,1.7a1,1,0,0,1-.77.916,6.035,6.035,0,0,0-2.62,1.512.925.925,0,0,1-1.087.211c-.555-.219-1.121-.411-1.688-.617-.225.386-.448.718-.611,1.078a.5.5,0,0,0,.085.456,13,13,0,0,0,1.133.953,1.065,1.065,0,0,1,.368,1.095,11.57,11.57,0,0,0-.041,2.647,1.505,1.505,0,0,1-.635,1.675c-.37.259-.9.575-.952.927s.381.8.6,1.2a.552.552,0,0,0,.084.086c.525-.188,1.072-.354,1.593-.58a.987.987,0,0,1,1.206.234,5.738,5.738,0,0,0,2.539,1.461.983.983,0,0,1,.786.9c.068.456.128.915.236,1.361.034.141.2.34.321.353a12.043,12.043,0,0,0,1.276.017c.1-.587.208-1.147.3-1.708a1,1,0,0,1,.771-.916,6.033,6.033,0,0,0,2.618-1.514.907.907,0,0,1,1.082-.21c.553.225,1.123.408,1.695.612.211-.363.391-.7.6-1.02a.351.351,0,0,0-.1-.558c-.381-.287-.729-.619-1.105-.914a1.075,1.075,0,0,1-.37-1.094,11.266,11.266,0,0,0,.04-2.647,1.494,1.494,0,0,1,.632-1.673c.373-.257.914-.581.955-.925.046-.386-.387-.829-.636-1.295" transform="translate(-139.32 -133.869)" fill="#1a1818"/>
        <path id="Trazado_206218" data-name="Trazado 206218" d="M219.337,419.616h8.031c.159,0,.319-.006.478,0a.8.8,0,0,1,.827.756.768.768,0,0,1-.849.767q-3.849.007-7.7,0a3.007,3.007,0,0,0-.854.087l1.576,1.172c.191.143.392.275.571.432a.779.779,0,0,1,.127,1.069.733.733,0,0,1-1.025.134c-.679-.473-1.339-.974-2.007-1.462s-1.362-1-2.045-1.493a.777.777,0,0,1-.011-1.373q1.964-1.441,3.931-2.878a.79.79,0,0,1,1.178.063.807.807,0,0,1-.281,1.155c-.657.5-1.324.98-1.986,1.47l.037.1" transform="translate(-195.373 -376.734)" fill="#1a1818"/>
        <path id="Trazado_206219" data-name="Trazado 206219" d="M416.843,120.206c0,1.083,0,2.167,0,3.25,0,.63-.268.925-.889.928q-3.3.019-6.6.007c-.6,0-.88-.275-.883-.884q-.018-3.3,0-6.592c0-.66.283-.911.951-.912q3.226,0,6.452,0c.7,0,.967.288.969,1q0,1.6,0,3.2m-4.567.608c-.4-.25-.751-.49-1.122-.7a.77.77,0,0,0-1.053.227.735.735,0,0,0,.231,1.048c.592.4,1.2.791,1.818,1.146a.7.7,0,0,0,1.007-.237c.707-1.135,1.405-2.276,2.072-3.435a.746.746,0,0,0-.573-1.116.818.818,0,0,0-.811.481c-.514.856-1.036,1.708-1.569,2.586" transform="translate(-369.373 -104.899)" fill="#dee4f0"/>
        <path id="Trazado_206220" data-name="Trazado 206220" d="M15.974,312.421c0-1.068,0-2.137,0-3.205,0-.626.271-.917.9-.92q3.275-.017,6.55-.006c.638,0,.919.271.923.9q.019,3.3,0,6.6a.792.792,0,0,1-.9.881q-3.277.009-6.554,0c-.641,0-.923-.3-.925-.945,0-1.1,0-2.2,0-3.3m3.811.672c-.42-.261-.776-.5-1.15-.709a.749.749,0,0,0-.8,1.266c.565.386,1.138.76,1.722,1.117a.754.754,0,0,0,1.174-.29c.5-.811,1-1.63,1.493-2.446.182-.3.378-.592.533-.9a.74.74,0,0,0-.291-.993.767.767,0,0,0-1.017.227,3.645,3.645,0,0,0-.2.324l-1.459,2.409" transform="translate(-14.444 -278.781)" fill="#ffd947"/>
        <path id="Trazado_206221" data-name="Trazado 206221" d="M416.811,412.56c0,1.083,0,2.167,0,3.25,0,.643-.29.931-.931.932q-3.25,0-6.5,0c-.648,0-.936-.247-.94-.873q-.02-3.321,0-6.641a.754.754,0,0,1,.854-.864q3.322-.02,6.644,0c.619,0,.872.307.874.944,0,1.083,0,2.167,0,3.251m-4.562.607c-.379-.236-.712-.451-1.051-.653a.764.764,0,0,0-1.13.173.756.756,0,0,0,.311,1.1c.5.336,1.013.66,1.523.984.612.389.963.311,1.344-.309.616-1,1.224-2.012,1.834-3.02.318-.525.267-.945-.139-1.212s-.831-.12-1.146.39c-.509.825-1.006,1.657-1.544,2.546" transform="translate(-369.341 -369.274)" fill="#c5de67"/>
        <path id="Trazado_206222" data-name="Trazado 206222" d="M15.972,20.132c0-1.067,0-2.135,0-3.2,0-.673.283-.954.955-.955q3.226,0,6.452,0c.687,0,.967.26.97.946q.012,3.248,0,6.5c0,.664-.273.936-.931.939q-3.25.014-6.5,0c-.684,0-.943-.288-.945-.975,0-1.083,0-2.166,0-3.25m3.811.652c-.2-.122-.356-.221-.515-.323s-.344-.23-.521-.335a.776.776,0,0,0-1.133.175.761.761,0,0,0,.3,1.1c.516.342,1.041.671,1.566,1a.8.8,0,0,0,1.283-.289c.466-.758.921-1.522,1.38-2.284.2-.34.428-.671.605-1.025a.758.758,0,0,0-1.308-.76c-.094.127-.165.271-.247.407l-1.414,2.331" transform="translate(-14.443 -14.445)" fill="#adce32"/>
        <path id="Trazado_206223" data-name="Trazado 206223" d="M188.727,167.955c.249.465.682.908.636,1.295-.041.344-.582.668-.955.925a1.494,1.494,0,0,0-.632,1.673,11.27,11.27,0,0,1-.04,2.647,1.075,1.075,0,0,0,.37,1.094c.376.295.724.626,1.105.914a.351.351,0,0,1,.1.558c-.206.32-.386.657-.6,1.02-.572-.2-1.142-.388-1.695-.612a.907.907,0,0,0-1.082.21,6.033,6.033,0,0,1-2.618,1.514,1,1,0,0,0-.771.916c-.091.562-.2,1.121-.3,1.708a12.034,12.034,0,0,1-1.276-.017c-.122-.013-.288-.212-.321-.353-.107-.447-.168-.906-.236-1.361a.983.983,0,0,0-.786-.9,5.738,5.738,0,0,1-2.539-1.461.987.987,0,0,0-1.206-.234c-.521.226-1.068.392-1.593.58a.55.55,0,0,1-.084-.086c-.223-.4-.659-.838-.6-1.2s.582-.667.952-.927a1.505,1.505,0,0,0,.635-1.675,11.564,11.564,0,0,1,.041-2.647,1.065,1.065,0,0,0-.368-1.095,12.984,12.984,0,0,1-1.133-.953.5.5,0,0,1-.085-.456c.163-.36.387-.692.611-1.078.567.206,1.133.4,1.688.617a.925.925,0,0,0,1.087-.211,6.036,6.036,0,0,1,2.62-1.512,1,1,0,0,0,.77-.916c.091-.563.2-1.123.3-1.7h1.527c.1.534.221,1.07.291,1.614a1.089,1.089,0,0,0,.885,1.035,5.529,5.529,0,0,1,2.454,1.418.989.989,0,0,0,1.2.244c.522-.225,1.07-.39,1.651-.6m-2.67,5.061A4.575,4.575,0,1,0,181.5,177.6a4.606,4.606,0,0,0,4.559-4.581" transform="translate(-156.982 -148.522)" fill="#ffa686"/>
        <path id="Trazado_206224" data-name="Trazado 206224" d="M426.523,137.265c.533-.878,1.055-1.729,1.569-2.586a.818.818,0,0,1,.811-.481.746.746,0,0,1,.573,1.116c-.666,1.159-1.365,2.3-2.072,3.435a.7.7,0,0,1-1.007.237c-.622-.355-1.226-.743-1.818-1.146a.735.735,0,0,1-.231-1.048.77.77,0,0,1,1.053-.227c.371.211.725.451,1.122.7" transform="translate(-383.62 -121.35)" fill="#1a1818"/>
        <path id="Trazado_206225" data-name="Trazado 206225" d="M34.094,329.549l1.459-2.409a3.641,3.641,0,0,1,.2-.324.767.767,0,0,1,1.017-.227.74.74,0,0,1,.291.993c-.155.313-.351.605-.533.9-.5.816-.988,1.635-1.493,2.446a.754.754,0,0,1-1.174.29c-.584-.357-1.157-.731-1.722-1.117a.749.749,0,0,1,.8-1.266c.375.207.731.448,1.15.709" transform="translate(-28.753 -295.238)" fill="#1a1818"/>
        <path id="Trazado_206226" data-name="Trazado 206226" d="M426.508,429.688c.538-.889,1.036-1.721,1.544-2.546.315-.51.75-.65,1.146-.39s.457.686.139,1.212c-.609,1.008-1.218,2.016-1.834,3.02-.381.62-.732.7-1.344.309-.51-.324-1.021-.648-1.523-.984a.756.756,0,0,1-.311-1.1.764.764,0,0,1,1.131-.173c.34.2.672.417,1.051.653" transform="translate(-383.6 -385.794)" fill="#1a1818"/>
        <path id="Trazado_206227" data-name="Trazado 206227" d="M34.074,37.137l1.414-2.331c.082-.136.154-.28.247-.407a.758.758,0,0,1,1.308.76c-.178.354-.4.685-.605,1.025-.459.762-.915,1.526-1.38,2.284a.8.8,0,0,1-1.283.289c-.524-.33-1.049-.659-1.566-1a.761.761,0,0,1-.3-1.1.776.776,0,0,1,1.133-.175c.177.106.347.224.521.335s.32.2.515.323" transform="translate(-28.734 -30.798)" fill="#1a1818"/>
        <path id="Trazado_206228" data-name="Trazado 206228" d="M217.341,212.759a4.575,4.575,0,1,1-4.568-4.57,4.614,4.614,0,0,1,4.568,4.57m-4.59-3.043a3.048,3.048,0,1,0,3.062,3.034,3.085,3.085,0,0,0-3.062-3.034" transform="translate(-188.265 -188.265)" fill="#1a1818"/>
      </g>
    </g>
  </g>
</svg>
