<svg xmlns="http://www.w3.org/2000/svg" xmlns:xlink="http://www.w3.org/1999/xlink" width="239.031" height="184" viewBox="0 0 239.031 184">
  <defs>
    <clipPath id="clip-path">
      <rect id="Rectángulo_361764" data-name="Rectángulo 361764" width="239" height="184" transform="translate(0 0.333)" fill="none"/>
    </clipPath>
  </defs>
  <g id="Grupo_1084280" data-name="Grupo 1084280" transform="translate(-1180.969 -527)">
    <g id="Grupo_1084279" data-name="Grupo 1084279">
      <g id="Grupo_1084278" data-name="Grupo 1084278">
        <g id="Grupo_1084277" data-name="Grupo 1084277">
          <g id="Grupo_1084276" data-name="Grupo 1084276">
            <g id="Grupo_1084275" data-name="Grupo 1084275">
              <g id="Grupo_1084272" data-name="Grupo 1084272" transform="translate(0 -5)">
                <g id="Grupo_1084271" data-name="Grupo 1084271">
                  <g id="hombre_sembrando" data-name="hombre sembrando" transform="translate(492.84 484)">
                    <g id="BACKGROUND" transform="translate(688.129 56.86)">
                      <path id="Trazado_717338" data-name="Trazado 717338" d="M239.031,500h0Z" transform="translate(0 -325.323)" fill="#fff"/>
                      <path id="Trazado_717219" data-name="Trazado 717219" d="M251.275,127.452a102.14,102.14,0,0,1-29.051,71.5H75.425a102.493,102.493,0,0,1-23.6-38.385,101.3,101.3,0,0,1-4.38-18.119A102.438,102.438,0,0,1,147.87,25h.945a102.511,102.511,0,0,1,96.951,69.235,100.894,100.894,0,0,1,3.5,12.915A102.884,102.884,0,0,1,251.275,127.452Z" transform="translate(-29.299 -25)" fill="#dee9f0"/>
                      <g id="Grupo_1084246" data-name="Grupo 1084246" transform="translate(17.045 0)" opacity="0.5">
                        <path id="Trazado_717220" data-name="Trazado 717220" d="M230.61,274.04c-28.6,9.425-58.916,10.436-89.026,10.988-31.376.559-62.762,1.1-94.142.515a103.43,103.43,0,0,1,.713-34.233A416.683,416.683,0,0,0,230.61,274.04Z" transform="translate(-46.35 -168.087)" fill="#dee9f0" opacity="0.5"/>
                        <path id="Trazado_717221" data-name="Trazado 717221" d="M296.107,129.955c-15.294-.143-31.339,7.579-46.935,5.538-17.251-2.273-31.056-16.111-48.108-19.567-12.213-2.479-24.775.614-37.215,1.3S137.3,115.238,130.333,104.9c-3.207-4.781-4.446-10.532-6.226-16a36.951,36.951,0,0,0-3.677-8.223A102.721,102.721,0,0,1,145.179,61.07,35.428,35.428,0,0,0,157.09,74.949c8.458,5.884,18.663,8.565,28.717,10.771s20.325,4.086,29.552,8.638c14.033,6.917,25.407,19.858,40.838,22.432,6.52,1.085,13.18.177,19.766-.4,5.549-.485,11.279-.71,16.637.658A100.9,100.9,0,0,1,296.107,129.955Z" transform="translate(-93.188 -47.806)" fill="#dee9f0"/>
                        <path id="Trazado_717222" data-name="Trazado 717222" d="M412.736,77.3c-7.6-.677-16.133,1.085-22.34-3.273-4.144-2.912-6.252-7.954-9.947-11.422-4.126-3.869-9.892-5.454-15.5-6.2s-11.334-.794-16.809-2.206A34.567,34.567,0,0,1,322.43,25h.945A102.416,102.416,0,0,1,412.736,77.3Z" transform="translate(-220.904 -25)" fill="#dee9f0" opacity="0.5"/>
                      </g>
                      <rect id="Rectángulo_361763" data-name="Rectángulo 361763" width="239.031" height="50.233" transform="translate(0 124.756)" fill="#adce32"/>
                      <g id="Grupo_1084247" data-name="Grupo 1084247" transform="translate(31.28 129.581)" opacity="0.5">
                        <path id="Trazado_717223" data-name="Trazado 717223" d="M85.244,383.773a.184.184,0,0,1-.184-.184v-3.405a.184.184,0,0,1,.368,0v3.405A.184.184,0,0,1,85.244,383.773Z" transform="translate(-85.06 -379.033)" fill="#adce32"/>
                        <path id="Trazado_717224" data-name="Trazado 717224" d="M92.444,390.047a.184.184,0,0,1-.184-.184v-3.129a.184.184,0,0,1,.368,0v3.129A.184.184,0,0,1,92.444,390.047Z" transform="translate(-89.612 -383.174)" fill="#adce32"/>
                        <path id="Trazado_717225" data-name="Trazado 717225" d="M148.734,465.417a.184.184,0,0,1-.184-.184v-3.88a.184.184,0,1,1,.368,0v3.88A.184.184,0,0,1,148.734,465.417Z" transform="translate(-125.202 -430.353)" fill="#adce32"/>
                        <path id="Trazado_717226" data-name="Trazado 717226" d="M156.594,470.8a.184.184,0,0,1-.184-.184v-3.376a.184.184,0,0,1,.368,0v3.376A.184.184,0,0,1,156.594,470.8Z" transform="translate(-130.172 -434.077)" fill="#adce32"/>
                        <path id="Trazado_717227" data-name="Trazado 717227" d="M469.464,440.03a.184.184,0,0,1-.184-.184v-3.372a.184.184,0,0,1,.368,0v3.387A.184.184,0,0,1,469.464,440.03Z" transform="translate(-327.987 -414.623)" fill="#adce32"/>
                        <path id="Trazado_717228" data-name="Trazado 717228" d="M475.354,446.056a.184.184,0,0,1-.184-.184v-3.508a.184.184,0,0,1,.368,0v3.508A.184.184,0,0,1,475.354,446.056Z" transform="translate(-331.711 -418.347)" fill="#adce32"/>
                        <path id="Trazado_717229" data-name="Trazado 717229" d="M382.4,480.571a.188.188,0,0,1-.184-.184v-2.7a.184.184,0,0,1,.368,0v2.692a.184.184,0,0,1-.184.195Z" transform="translate(-272.942 -440.678)" fill="#adce32"/>
                        <path id="Trazado_717230" data-name="Trazado 717230" d="M138.264,379.44a.184.184,0,0,1-.184-.184v-1.7a.184.184,0,1,1,.368,0v1.7A.184.184,0,0,1,138.264,379.44Z" transform="translate(-118.582 -377.37)" fill="#adce32"/>
                        <path id="Trazado_717231" data-name="Trazado 717231" d="M144.8,379.61a.184.184,0,0,1-.184-.184v-1.2a.184.184,0,0,1,.368,0v1.2A.184.184,0,0,1,144.8,379.61Z" transform="translate(-122.717 -377.794)" fill="#adce32"/>
                        <path id="Trazado_717232" data-name="Trazado 717232" d="M255.424,382.534a.184.184,0,0,1-.184-.184v-2.166a.188.188,0,0,1,.184-.184.184.184,0,0,1,.184.184v2.166A.184.184,0,0,1,255.424,382.534Z" transform="translate(-192.658 -379.033)" fill="#adce32"/>
                      </g>
                    </g>
                    <g id="OBJECTS" transform="translate(688.129 47.667)">
                      <path id="Trazado_717233" data-name="Trazado 717233" d="M391.575,122.451a.184.184,0,0,1-.129.147.2.2,0,0,1-.2-.044,5.185,5.185,0,0,1-1.368-2.787,7.744,7.744,0,0,1-.1-1.427A4.361,4.361,0,0,1,391.575,122.451Z" transform="translate(-246.439 -74.822)" fill="#fff"/>
                      <path id="Trazado_717234" data-name="Trazado 717234" d="M442.845,115.13a5.976,5.976,0,0,1-1.177,3.144.2.2,0,0,1-.25.055.173.173,0,0,1-.1-.206,6.7,6.7,0,0,1,1.526-2.993Z" transform="translate(-279.024 -72.792)" fill="#fff"/>
                      <path id="Trazado_717235" data-name="Trazado 717235" d="M474.5,128.81a6.557,6.557,0,0,1-.305,1.379.169.169,0,0,1-.224.114.188.188,0,0,1-.143-.235A2.983,2.983,0,0,1,474.5,128.81Z" transform="translate(-299.578 -81.441)" fill="#fff"/>
                      <path id="Trazado_717236" data-name="Trazado 717236" d="M412.624,109.576H367.8a15.011,15.011,0,0,1-2.181-6.23,8.119,8.119,0,0,1,2.052-6.1,5.659,5.659,0,0,1,5.979-1.471,3.343,3.343,0,0,1,.309.143,8.745,8.745,0,0,0,.1,1.839,5.729,5.729,0,0,0,1.522,3.078.735.735,0,0,0,1.236-.4,4.95,4.95,0,0,0-2.309-4.836,17.049,17.049,0,0,1,.265-1.894c.57-2.942,1.92-6.88,5.126-8.936a9.355,9.355,0,0,1,9.285-.232,11.432,11.432,0,0,1,5.612,7.645,9.649,9.649,0,0,1,.213,2.048,7.215,7.215,0,0,0-2.089,3.744.71.71,0,0,0,.4.809.736.736,0,0,0,.9-.206,6.877,6.877,0,0,0,1.342-4.075,6.23,6.23,0,0,1,2.129-1.239,6.594,6.594,0,0,1,7.142,2.206,6.454,6.454,0,0,1,1.276,3.894,3.56,3.56,0,0,0-1.232,1.9.736.736,0,0,0,.511.886.71.71,0,0,0,.894-.46,7.355,7.355,0,0,0,.368-2.059,2.6,2.6,0,0,1,.526-.261,3.887,3.887,0,0,1,4.126,1.287,6.573,6.573,0,0,1,1.39,4.413c0,.519.018,1.026.04,1.519a11.332,11.332,0,0,1-.118,2.986Z" transform="translate(-231.159 -52.742)" fill="#fff"/>
                      <path id="Trazado_717237" data-name="Trazado 717237" d="M113.9,174.378a.787.787,0,0,1-.393.735.456.456,0,0,1-.419,0,1.526,1.526,0,0,1-.691-.967,6.229,6.229,0,0,1,.6-4.376A13.7,13.7,0,0,1,113.9,174.378Z" transform="translate(-70.953 -107.339)" fill="#fff"/>
                      <path id="Trazado_717238" data-name="Trazado 717238" d="M145.169,177a5.306,5.306,0,0,1-.621,2.092.4.4,0,0,1-.541.184.39.39,0,0,1-.213-.519A3.619,3.619,0,0,1,145.169,177Z" transform="translate(-90.894 -111.91)" fill="#fff"/>
                      <path id="Trazado_717239" data-name="Trazado 717239" d="M171.776,195.2a1.442,1.442,0,0,1-.467,1.063.658.658,0,0,1-.93.037,1.055,1.055,0,0,1-.294-1.243,1.147,1.147,0,0,1,.78-.519,1.409,1.409,0,0,1,.324-.037,1.71,1.71,0,0,1,.581.1C171.776,194.805,171.779,195,171.776,195.2Z" transform="translate(-107.48 -122.975)" fill="#fff"/>
                      <path id="Trazado_717240" data-name="Trazado 717240" d="M121.109,171.487a10.179,10.179,0,0,1-.57,2.725H90.807a16.569,16.569,0,0,1-2.427-12.893c.673-2.574,2.405-5.192,5.229-4.869a4.361,4.361,0,0,1,2.346,1.077,6.373,6.373,0,0,1,1.364,1.721,7.16,7.16,0,0,0-.849,5.222,2.129,2.129,0,0,0,1.03,1.357,1.044,1.044,0,0,0,.934-.037,1.372,1.372,0,0,0,.713-1.316A13.535,13.535,0,0,0,98,159.252a15.536,15.536,0,0,1,1.1-1.7c1.625-2.206,4.178-4.479,7.094-2.817a5.553,5.553,0,0,1,2.012,2.078,10.874,10.874,0,0,1,1.7,5.031c-.1.051-.195.11-.287.169a4.2,4.2,0,0,0-1.673,2.092.978.978,0,0,0,.526,1.265,1,1,0,0,0,1.313-.434,5.913,5.913,0,0,0,.735-2.593v-.125a5.667,5.667,0,0,1,3.707-.143,7.954,7.954,0,0,1,5.6,6.369,2.265,2.265,0,0,0-.956,0,1.769,1.769,0,0,0-1.173.8,1.636,1.636,0,0,0,.427,2.008,1.258,1.258,0,0,0,1.7-.04,2.048,2.048,0,0,0,.677-1.5v-.184a2.758,2.758,0,0,1,.61,1.96Z" transform="translate(-55.603 -97.472)" fill="#fff"/>
                      <path id="Trazado_717241" data-name="Trazado 717241" d="M504.268,223.812a.993.993,0,0,1-.474.544.331.331,0,0,1-.257,0c-.268-.118-.287-.581-.272-.849a8.692,8.692,0,0,1,.4-2.206A2.445,2.445,0,0,1,504.268,223.812Z" transform="translate(-318.191 -139.919)" fill="#fff"/>
                      <path id="Trazado_717242" data-name="Trazado 717242" d="M533.913,219.391c-.074.165-.191.368-.338.368a.162.162,0,0,1-.14-.048,1.044,1.044,0,0,1-.228-.713,9.583,9.583,0,0,1,.622-3.357A4.63,4.63,0,0,1,533.913,219.391Z" transform="translate(-337.124 -136.341)" fill="#fff"/>
                      <path id="Trazado_717243" data-name="Trazado 717243" d="M565.742,219.4a3.622,3.622,0,0,1-.647,2.118.79.79,0,0,1-.518.324.121.121,0,0,1-.114-.048c-.059-.077-.04-.235.055-.471A6.252,6.252,0,0,1,565.742,219.4Z" transform="translate(-356.865 -138.718)" fill="#fff"/>
                      <path id="Trazado_717244" data-name="Trazado 717244" d="M525.107,214.639H488.458a11.327,11.327,0,0,1-.427-3.872,5.237,5.237,0,0,1,1.673-3.42,3.409,3.409,0,0,1,3.541-.629,2.609,2.609,0,0,1,.346.191,9.26,9.26,0,0,0-.485,2.545c-.048.879.287,1.214.57,1.339a.827.827,0,0,0,.655,0,1.471,1.471,0,0,0,.758-.824,3,3,0,0,0-.894-3.225,7.52,7.52,0,0,1,2.523-3.346,6.126,6.126,0,0,1,6.586-.452,4.913,4.913,0,0,1,1.644,1.666,10.024,10.024,0,0,0-.824,3.95,1.544,1.544,0,0,0,.4,1.1.673.673,0,0,0,.544.169,1,1,0,0,0,.736-.677,5.189,5.189,0,0,0-.287-4.586,9.929,9.929,0,0,1,4.608-4.8,4.976,4.976,0,0,1,3.648-.489c1.471.5,2.519,1.982,3.243,4.659a11.305,11.305,0,0,1,.368,1.956,6.774,6.774,0,0,0-1.669,2.42.986.986,0,0,0,.022.967.581.581,0,0,0,.515.246,1.254,1.254,0,0,0,.919-.526,4.318,4.318,0,0,0,.735-2.9,3.924,3.924,0,0,1,2.4-.975c2.089-.055,3.677,1.732,4.306,3.424A15.117,15.117,0,0,1,525.107,214.639Z" transform="translate(-308.548 -125.885)" fill="#fff"/>
                      <path id="Trazado_717245" data-name="Trazado 717245" d="M505.253,205.174a4.63,4.63,0,0,1,.085,3.736c-.074.165-.191.368-.338.368a.162.162,0,0,1-.14-.048,1.045,1.045,0,0,1-.228-.713A9.583,9.583,0,0,1,505.253,205.174ZM493.61,209.45a8.689,8.689,0,0,1,.4-2.206,2.446,2.446,0,0,1,.6,2.515.993.993,0,0,1-.474.544.331.331,0,0,1-.257,0C493.614,210.182,493.6,209.7,493.61,209.45Zm31.5,5.148H488.458a11.327,11.327,0,0,1-.427-3.872,5.237,5.237,0,0,1,1.673-3.42,3.409,3.409,0,0,1,3.541-.629,2.607,2.607,0,0,1,.346.191,9.26,9.26,0,0,0-.485,2.545c-.048.879.287,1.214.57,1.339a.827.827,0,0,0,.655,0,1.471,1.471,0,0,0,.758-.824,3,3,0,0,0-.894-3.225,7.52,7.52,0,0,1,2.523-3.346,6.126,6.126,0,0,1,6.586-.452,4.914,4.914,0,0,1,1.644,1.666,10.024,10.024,0,0,0-.824,3.95,1.544,1.544,0,0,0,.4,1.1.673.673,0,0,0,.544.169,1,1,0,0,0,.736-.677,5.189,5.189,0,0,0-.287-4.586,9.929,9.929,0,0,1,4.608-4.8,4.976,4.976,0,0,1,3.648-.489c1.471.5,2.519,1.982,3.243,4.659a11.305,11.305,0,0,1,.368,1.956,6.774,6.774,0,0,0-1.669,2.42.986.986,0,0,0,.022.967.581.581,0,0,0,.515.246,1.254,1.254,0,0,0,.919-.526,4.318,4.318,0,0,0,.735-2.9,3.924,3.924,0,0,1,2.4-.975c2.089-.055,3.677,1.732,4.306,3.424a15.212,15.212,0,0,1,.5,6.1Zm-7.682-8.057a3.623,3.623,0,0,1-.647,2.118.791.791,0,0,1-.518.324.121.121,0,0,1-.114-.048c-.059-.077-.04-.235.055-.471a6.252,6.252,0,0,1,1.225-1.923Z" transform="translate(-308.548 -125.859)" fill="#fff"/>
                      <g id="Grupo_1084248" data-name="Grupo 1084248" transform="translate(0)" clip-path="url(#clip-path)">
                        <path id="Trazado_717246" data-name="Trazado 717246" d="M13.015,298.676c-.324.566-.651.857-1,.9-.478.063-.908-.423-1.015-.9a3.273,3.273,0,0,1,.272-1.747,16.57,16.57,0,0,1,2.534-4.516,8.557,8.557,0,0,1-.791,6.266Z" transform="translate(-6.94 -184.879)" fill="#0b481e"/>
                        <path id="Trazado_717247" data-name="Trazado 717247" d="M79.087,310.41a10.348,10.348,0,0,1-1.081,4.089c-.158.309-.585,1.037-1.1.949a.467.467,0,0,1-.39-.287,2.3,2.3,0,0,1,.268-1.839,13.282,13.282,0,0,1,2.306-2.913Z" transform="translate(-48.315 -196.26)" fill="#0b481e"/>
                        <path id="Trazado_717248" data-name="Trazado 717248" d="M128.318,324.848a1.287,1.287,0,0,1-1.158.254.736.736,0,0,1-.541-.485,1.471,1.471,0,0,1,.154-.963,5.7,5.7,0,0,1,1.993-2.383,8.22,8.22,0,0,1,.191,1.305A2.794,2.794,0,0,1,128.318,324.848Z" transform="translate(-80.042 -203.126)" fill="#0b481e"/>
                        <path id="Trazado_717249" data-name="Trazado 717249" d="M35.373,306.235H-34.266c-3.438-7.046-5.343-13.331-5.818-19.214a14.136,14.136,0,0,1,5.042-12.157,11.177,11.177,0,0,1,12.739-.7,9.3,9.3,0,0,1,3.582,4.869,17.188,17.188,0,0,0-2.942,5.071,3.806,3.806,0,0,0-.294,2.118,1.725,1.725,0,0,0,1.743,1.419,2.109,2.109,0,0,0,1.5-1.221,9.371,9.371,0,0,0,.735-7.226,15.265,15.265,0,0,1,6.73-4.567,13.444,13.444,0,0,1,13.209,2.887,11.679,11.679,0,0,1,3.457,8.013,13.868,13.868,0,0,0-2.905,3.482,2.912,2.912,0,0,0-.3,2.464,1.14,1.14,0,0,0,.886.666c.68.1,1.342-.368,1.817-1.313a11.051,11.051,0,0,0,1.166-4.987A11.957,11.957,0,0,1,14.537,283a10.113,10.113,0,0,1,8.646,6.755,6.362,6.362,0,0,0-2.42,2.791,2.111,2.111,0,0,0-.184,1.412,1.364,1.364,0,0,0,1,.934,1.953,1.953,0,0,0,1.787-.4,3.366,3.366,0,0,0,.846-2.8,8.123,8.123,0,0,0-.257-1.633,7.244,7.244,0,0,1,5.619-.585,9.974,9.974,0,0,1,6.252,7.112A18.883,18.883,0,0,1,35.373,306.235Z" transform="translate(25.374 -172.286)" fill="#0b481e"/>
                        <path id="Trazado_717250" data-name="Trazado 717250" d="M538.54,305.567c-.044.519-.478,1.1-.975,1.1-.607,0-1.022-.736-1.221-1.151a9.525,9.525,0,0,1-.7-5.229,11.922,11.922,0,0,1,2.39,3.479A3.527,3.527,0,0,1,538.54,305.567Z" transform="translate(-338.604 -189.861)" fill="#0b481e"/>
                        <path id="Trazado_717251" data-name="Trazado 717251" d="M603.928,295.5c-.239.592-.691,1.2-1.206,1.1s-.765-.846-.735-1.515a7.024,7.024,0,0,1,2.427-4.979A9.323,9.323,0,0,1,603.928,295.5Z" transform="translate(-380.61 -183.425)" fill="#0b481e"/>
                        <path id="Trazado_717252" data-name="Trazado 717252" d="M644.565,322.63c-.07.338-.143.677-.239,1.011a2.9,2.9,0,0,1-.6,1.276.923.923,0,0,1-1.055.254.655.655,0,0,1-.305-.463,1.585,1.585,0,0,1,.368-1.184A2.706,2.706,0,0,1,644.565,322.63Z" transform="translate(-406.137 -203.986)" fill="#0b481e"/>
                        <path id="Trazado_717253" data-name="Trazado 717253" d="M565.418,302.46h-48.88a32.567,32.567,0,0,1-4.67-17.07,12.055,12.055,0,0,1,.934-5.02,5.164,5.164,0,0,1,3.714-3.012,4.99,4.99,0,0,1,3.593,1.048,10.237,10.237,0,0,0,.688,5.968c.445.971,1.081,1.515,1.791,1.526a1.743,1.743,0,0,0,1.618-1.673,4.122,4.122,0,0,0-.563-2.151,12.105,12.105,0,0,0-2.729-3.843l-.107-.088a11.127,11.127,0,0,1,.3-1.129,14.636,14.636,0,0,1,4.019-6.053,16.222,16.222,0,0,1,9.929-4.516,12.491,12.491,0,0,1,9.955,3.865,10.3,10.3,0,0,1,2.254,4.159,7.722,7.722,0,0,0-2.905,5.656c-.022.978.368,2.023,1.294,2.162.735.118,1.471-.445,1.894-1.5a10.05,10.05,0,0,0,.43-6.071,7.561,7.561,0,0,1,3.677-1.471,9.544,9.544,0,0,1,8.91,4.589,12.676,12.676,0,0,1,1.6,8.638,3.361,3.361,0,0,0-2.446,1.136,2.207,2.207,0,0,0-.493,1.71,1.25,1.25,0,0,0,.622.908,1.552,1.552,0,0,0,1.839-.368,3.468,3.468,0,0,0,.758-1.552c.107-.39.195-.783.272-1.177a3.836,3.836,0,0,1,1.809.64,6.781,6.781,0,0,1,2.486,4.174A13.139,13.139,0,0,1,565.418,302.46Z" transform="translate(-323.633 -168.448)" fill="#0b481e"/>
                        <path id="Trazado_717254" data-name="Trazado 717254" d="M546.951,280.524c-.239.592-.691,1.2-1.206,1.1s-.765-.846-.735-1.515a7.024,7.024,0,0,1,2.427-4.979A9.322,9.322,0,0,1,546.951,280.524Zm-26.271-1.662a11.922,11.922,0,0,1,2.39,3.479,3.527,3.527,0,0,1,.5,1.813c-.044.519-.478,1.1-.975,1.1-.607,0-1.022-.735-1.221-1.151a9.525,9.525,0,0,1-.7-5.244Zm44.739,23.6h-48.88a32.567,32.567,0,0,1-4.67-17.07,12.055,12.055,0,0,1,.934-5.02,5.164,5.164,0,0,1,3.714-3.012,4.99,4.99,0,0,1,3.593,1.048,10.237,10.237,0,0,0,.688,5.968c.445.971,1.081,1.515,1.791,1.526a1.743,1.743,0,0,0,1.618-1.673,4.122,4.122,0,0,0-.563-2.151,12.105,12.105,0,0,0-2.729-3.843l-.107-.088a11.127,11.127,0,0,1,.3-1.129,14.636,14.636,0,0,1,4.019-6.053,16.222,16.222,0,0,1,9.929-4.516,12.491,12.491,0,0,1,9.955,3.865,10.3,10.3,0,0,1,2.254,4.159,7.722,7.722,0,0,0-2.905,5.656c-.022.978.368,2.023,1.294,2.162.735.118,1.471-.445,1.894-1.5a10.05,10.05,0,0,0,.43-6.071,7.561,7.561,0,0,1,3.677-1.471,9.544,9.544,0,0,1,8.91,4.589,12.676,12.676,0,0,1,1.6,8.638,3.361,3.361,0,0,0-2.446,1.136,2.207,2.207,0,0,0-.493,1.71,1.25,1.25,0,0,0,.622.908,1.552,1.552,0,0,0,1.839-.368,3.468,3.468,0,0,0,.758-1.552c.107-.39.195-.783.272-1.177a3.836,3.836,0,0,1,1.809.64,6.781,6.781,0,0,1,2.486,4.174,13.139,13.139,0,0,1-1.6,10.517Zm-3.357-15.368c-.07.338-.143.677-.239,1.011a2.9,2.9,0,0,1-.6,1.276.923.923,0,0,1-1.055.254.654.654,0,0,1-.305-.463,1.585,1.585,0,0,1,.368-1.184,2.707,2.707,0,0,1,1.831-.894Z" transform="translate(-323.633 -168.448)" fill="#0b481e"/>
                        <path id="Trazado_717255" data-name="Trazado 717255" d="M598.538,419.054a1.214,1.214,0,0,1-.151.53,1.231,1.231,0,0,1-.368.43,1.214,1.214,0,0,1-1.188.114,61.806,61.806,0,0,1-19.6-13.713c-.184-.195-.368-.4-.544-.6a38.565,38.565,0,0,1-7.123-11.242l1.9-1.949-2.5.368a33.331,33.331,0,0,1-1.806-11.981,4.928,4.928,0,0,1,.026-.614,39.841,39.841,0,0,1,1.18-7.862,1.235,1.235,0,0,1,.463-.7,1.157,1.157,0,0,1,.507-.228,1.177,1.177,0,0,1,.585.033,40.032,40.032,0,0,1,12.522,6.66l-1.129,2.942,2.412-1.894c.735.618,1.471,1.28,2.177,1.989.169.169.342.338.511.515C593.338,388.929,599.45,400.49,598.538,419.054Z" transform="translate(-358.58 -234.941)" fill="#606060"/>
                        <path id="Trazado_717256" data-name="Trazado 717256" d="M599.443,421.35l-.471.287L598,420.027l-7.557-12.474L577.2,406.428c-.184-.195-.368-.4-.544-.6l13.423,1.14L577.864,386.8l-10.734-5.792a4.928,4.928,0,0,1,.026-.614l10.146,5.476-8.5-14.033a1.158,1.158,0,0,1,.507-.228l15.349,25.341,1.217-15.611c.169.169.342.338.511.515l-1.239,15.9L598.384,419.6Z" transform="translate(-358.573 -234.954)" fill="#606060"/>
                        <path id="Trazado_717257" data-name="Trazado 717257" d="M563.216,463.724a1.255,1.255,0,0,1-.243.5,1.221,1.221,0,0,1-.736.423c-4.108.736-14.967,2.133-25.834-.952-.268-.074-.533-.151-.8-.232a36.151,36.151,0,0,1-14.221-7.98l.7-2.681-1.739,1.67a33.593,33.593,0,0,1-3.045-3.556c-.114-.154-.228-.309-.338-.467a38.485,38.485,0,0,1-4.9-9.447,1.349,1.349,0,0,1-.066-.533,1.269,1.269,0,0,1,.173-.53,1.21,1.21,0,0,1,.7-.544,40.529,40.529,0,0,1,19.858-.618c.073,1.214.423,4.718.423,4.718l1-4.376q.982.254,1.978.57c.2.063.408.129.61.2a42.754,42.754,0,0,1,15.6,9.407c.235.221.474.445.71.673a62.122,62.122,0,0,1,10.032,12.823A1.232,1.232,0,0,1,563.216,463.724Z" transform="translate(-323.71 -276.82)" fill="#606060"/>
                        <path id="Trazado_717258" data-name="Trazado 717258" d="M563.223,466.919a1.255,1.255,0,0,1-.243.5l-13.912-6.472-12.65,5.954c-.268-.074-.533-.151-.8-.232l12.79-6.038-21.259-9.9-9.848,3.383c-.114-.154-.228-.309-.338-.467l9.466-3.254L512,443.66a1.269,1.269,0,0,1,.173-.53l26.738,12.463-2.762-12.713c.2.063.408.129.61.2l2.78,12.8,15.077,7.016-2.28-10.414c.235.221.474.445.71.673l2.177,10.032Z" transform="translate(-323.717 -280.015)" fill="#606060"/>
                        <path id="Trazado_717259" data-name="Trazado 717259" d="M-22.809,419.054a1.213,1.213,0,0,0,.151.53,1.232,1.232,0,0,0,.368.43,1.214,1.214,0,0,0,1.188.114A61.806,61.806,0,0,0-1.5,406.415c.184-.195.368-.4.544-.6a38.565,38.565,0,0,0,7.123-11.242l-1.89-1.949,2.5.368a33.332,33.332,0,0,0,1.806-11.981,4.931,4.931,0,0,0-.026-.614,39.841,39.841,0,0,0-1.18-7.862,1.236,1.236,0,0,0-.463-.7,1.158,1.158,0,0,0-.507-.228,1.176,1.176,0,0,0-.585.033,40.031,40.031,0,0,0-12.5,6.66l1.129,2.942-2.412-1.894c-.735.618-1.471,1.28-2.177,1.989-.169.169-.342.338-.511.515C-17.609,388.929-23.732,400.49-22.809,419.054Z" transform="translate(14.48 -234.941)" fill="#0b481e"/>
                        <path id="Trazado_717260" data-name="Trazado 717260" d="M-25.13,421.351l.471.287.975-1.611,7.557-12.474,13.239-1.125c.184-.195.368-.4.544-.6l-13.423,1.14L-3.551,386.8l10.734-5.792a4.931,4.931,0,0,0-.026-.614L-3,385.871l8.5-14.033A1.158,1.158,0,0,0,5,371.61l-15.349,25.341-1.217-15.611c-.169.169-.342.338-.511.515l1.239,15.9L-24.078,419.6Z" transform="translate(15.889 -234.954)" fill="#0b481e"/>
                        <path id="Trazado_717261" data-name="Trazado 717261" d="M-21.476,463.724a1.254,1.254,0,0,0,.243.5,1.221,1.221,0,0,0,.735.423c4.108.735,14.967,2.133,25.834-.952.268-.074.533-.151.8-.232a36.15,36.15,0,0,0,14.221-7.98l-.7-2.681,1.739,1.67a33.584,33.584,0,0,0,3.045-3.556c.114-.154.228-.309.338-.467A38.484,38.484,0,0,0,29.68,441a1.349,1.349,0,0,0,.074-.533,1.269,1.269,0,0,0-.173-.53,1.21,1.21,0,0,0-.7-.544,40.529,40.529,0,0,0-19.858-.618c-.074,1.214-.423,4.718-.423,4.718l-1-4.376q-.982.254-1.978.57c-.2.063-.408.129-.61.2a42.753,42.753,0,0,0-15.6,9.407c-.235.221-.474.445-.71.673A62.122,62.122,0,0,0-21.322,462.79,1.232,1.232,0,0,0-21.476,463.724Z" transform="translate(13.599 -276.82)" fill="#0b481e"/>
                        <path id="Trazado_717262" data-name="Trazado 717262" d="M-21.42,466.919a1.254,1.254,0,0,0,.243.5l13.912-6.472L5.385,466.9c.268-.074.533-.151.8-.232l-12.8-6.038,21.259-9.9,9.848,3.383c.114-.154.228-.309.338-.467l-9.466-3.254L29.8,443.66a1.269,1.269,0,0,0-.173-.53L2.891,455.593,5.653,442.88c-.2.063-.408.129-.61.2l-2.773,12.8L-12.808,462.9l2.273-10.414c-.235.221-.474.445-.71.673l-2.177,10.036Z" transform="translate(13.543 -280.015)" fill="#0b481e"/>
                      </g>
                      <path id="Trazado_717263" data-name="Trazado 717263" d="M355.542,399.466c0,2.611-8.2,1.522-45.482,1.522s-75.28,1.1-75.28-1.522,30.236-4.736,67.513-4.736S355.542,396.852,355.542,399.466Z" transform="translate(-148.442 -249.572)" fill="#adce32"/>
                      <path id="Trazado_717264" data-name="Trazado 717264" d="M202.094,282.682a32.328,32.328,0,0,1-6.744-1.493,3.758,3.758,0,0,0-1.066-.254,1.188,1.188,0,0,0-.982.408c-.393.526-.074,1.28.313,1.813a8.458,8.458,0,0,0,1.971,1.942,25.919,25.919,0,0,0-6.792,1.651,1.96,1.96,0,0,0-.736.5.735.735,0,0,0-.1.831,1.033,1.033,0,0,0,.791.346,9.561,9.561,0,0,0,2.611-.085,13.683,13.683,0,0,0-3.556,1.636,2.151,2.151,0,0,0-.618.533.809.809,0,0,0-.11.776c.206.441.816.463,1.3.408a27.259,27.259,0,0,0,4.3-.861,30.414,30.414,0,0,0-3.346,2.148,1.96,1.96,0,0,0-.511.5.7.7,0,0,0-.062.684c.2.368.735.368,1.155.283a39.324,39.324,0,0,0,4.953-1.4c-.618.669-1.313,1.434-1.934,2.1-.287.313-.585.783-.324,1.1s.735.177,1.1.018c3.677-1.618,7.506-3.31,10.253-6.27a13.154,13.154,0,0,1-2.107-5.516A2.846,2.846,0,0,1,202.094,282.682Z" transform="translate(-118.249 -177.622)" fill="#ffa686"/>
                      <path id="Trazado_717265" data-name="Trazado 717265" d="M276.581,197.312c-.169,2-1.419,3.718-2.626,5.318-3.626,4.781-4.325,7.086-8.009,11.834-1.89,2.442-3.828,4.928-6.413,6.619-2.206,1.434-7.723,4.678-10.256,5.3a63.953,63.953,0,0,1-17.916,1.706h-.121a1.383,1.383,0,0,1-.136.474,1.912,1.912,0,0,1-1.89.971,2.431,2.431,0,0,1-1.122-.46,2.863,2.863,0,0,1-.309-.257,3.7,3.7,0,0,1-.688-.908,5.946,5.946,0,0,1-.511-1.412c-.033-.136-.066-.268-.092-.4-.059-.279-.107-.563-.154-.842-.088-.519-.18-1.037-.272-1.556-.018-.132-.04-.261-.066-.393-.1-.607-.21-1.217-.316-1.839a8.935,8.935,0,0,1-.114-.9,2.938,2.938,0,0,1,0-.4,2.012,2.012,0,0,1,.633-1.6,3.067,3.067,0,0,1,1.427-.53l.677-.129.368-.07c7.392-1.375,19.156-3.435,23.168-9.241,3.777-5.454,4.571-8.458,8.344-13.915,2.17-3.137,4.38-6.318,7.355-8.719,1.64-1.331,3.593-2.548,4.255-4.549,1.379,3.677,2.427,7.59,3.806,11.268A11.011,11.011,0,0,1,276.581,197.312Z" transform="translate(-142.613 -114.692)" fill="#ffd947"/>
                      <path id="Trazado_717266" data-name="Trazado 717266" d="M236.063,290.752h-.121a1.383,1.383,0,0,1-.136.474c-.21-.614-.4-1.232-.6-1.839-.048-.154-.1-.309-.14-.463q-.368-1.169-.673-2.342c-.037-.136-.074-.268-.107-.4-.14-.515-.272-1.03-.4-1.548-.033-.136-.066-.272-.1-.408-.169-.7-.335-1.412-.482-2.118-.029-.132-.055-.261-.085-.39-.077-.368-.154-.758-.224-1.136l.368-.07A82.592,82.592,0,0,0,236.063,290.752Z" transform="translate(-147.316 -177.355)" fill="#ffd947"/>
                      <path id="Trazado_717267" data-name="Trazado 717267" d="M228.739,284.068l-.1.044a27.642,27.642,0,0,1-3.038,1.136,2.943,2.943,0,0,1,0-.4,27.857,27.857,0,0,0,2.942-1.125h.029a.191.191,0,0,1,.254.1A.2.2,0,0,1,228.739,284.068Z" transform="translate(-142.632 -179.376)" fill="#ffd947"/>
                      <path id="Trazado_717268" data-name="Trazado 717268" d="M230.17,290.712l-.18.129a14.343,14.343,0,0,1-3.1,1.736c-.018-.132-.04-.261-.066-.393a14.033,14.033,0,0,0,3.089-1.75l.04-.029a.195.195,0,1,1,.235.309Z" transform="translate(-143.409 -183.578)" fill="#ffd947"/>
                      <path id="Trazado_717269" data-name="Trazado 717269" d="M231.367,296.174l-.077.081a18.321,18.321,0,0,1-3.107,2.574c-.033-.136-.066-.268-.092-.4a17.59,17.59,0,0,0,3-2.534.2.2,0,0,1,.1-.051.188.188,0,0,1,.177.044.195.195,0,0,1,.007.291Z" transform="translate(-144.212 -187.043)" fill="#ffd947"/>
                      <path id="Trazado_717270" data-name="Trazado 717270" d="M234.543,303.39c-.063.092-.125.177-.191.261a10.731,10.731,0,0,1-2.412,2.361,2.864,2.864,0,0,1-.309-.257,10.44,10.44,0,0,0,2.574-2.574h0a.188.188,0,0,1,.268-.052.2.2,0,0,1,.07.261Z" transform="translate(-146.45 -191.634)" fill="#ffd947"/>
                      <rect id="Rectángulo_361765" data-name="Rectángulo 361765" width="11.709" height="8.782" transform="translate(120.409 134.049)" fill="#ccad38"/>
                      <path id="Trazado_717271" data-name="Trazado 717271" d="M367.59,369.123v1.122l11.709-.655v-.71Z" transform="translate(-247.181 -233.228)" fill="#ccad38"/>
                      <path id="Trazado_717272" data-name="Trazado 717272" d="M317.378,385.265H290.165a1.435,1.435,0,0,1,.114-1.291,1.261,1.261,0,0,1,.029-1.14,3.177,3.177,0,0,1,.735-.912c2.615-2.431,5.965-3.894,8.892-5.939a25.9,25.9,0,0,1,3.46-2.28,5.368,5.368,0,0,1,4.019-.456,3.042,3.042,0,0,1,2.115,3.174,3.677,3.677,0,0,0,4.873-.9,2.342,2.342,0,0,1,.8-.868,1.272,1.272,0,0,1,1.537.791,5.776,5.776,0,0,1,.279,1.887,26.713,26.713,0,0,0,.949,3.931A5.715,5.715,0,0,1,317.378,385.265Z" transform="translate(-183.388 -235.852)" fill="#ccad38"/>
                      <path id="Trazado_717273" data-name="Trazado 717273" d="M355.448,250.076a7.175,7.175,0,0,1-3.486,6.211c-2.177,1.21-4.762,1.019-7.16.526a27.206,27.206,0,0,1-9.194-3.924v31.026c-1.25.04-2.5.081-3.755.114h-.386q-4.611.121-9.227.154c-.621,0-1.357-.048-1.7-.574a1.909,1.909,0,0,1-.085-1.364c.324-1.706.4-3.17.717-4.876l-.872-30.346a12.51,12.51,0,0,1,3.861-10.22,10.335,10.335,0,0,1,7.723-2.206,26.291,26.291,0,0,1,7.892,2.262,104.13,104.13,0,0,1,12.967,6.579C354.867,244.707,355.466,247.587,355.448,250.076Z" transform="translate(-202.468 -148.297)" fill="#ccad38"/>
                      <path id="Trazado_717274" data-name="Trazado 717274" d="M351.163,315.619v19.527h-.386V315.619a.195.195,0,1,1,.386,0Z" transform="translate(-221.781 -199.413)" fill="#ccad38"/>
                      <path id="Trazado_717275" data-name="Trazado 717275" d="M555.238,340.661l-1.2,11.646-14.415-.9,1.2-11.646Z" transform="translate(-355.948 -214.817)" fill="#ccad38"/>
                      <path id="Trazado_717276" data-name="Trazado 717276" d="M552.072,340.64,548.7,352.172l1.684.1,2.324-11.573Z" transform="translate(-361.689 -215.373)" fill="#ccad38"/>
                      <path id="Trazado_717277" data-name="Trazado 717277" d="M521.422,338.935a25.84,25.84,0,0,1-3.939-.912,5.8,5.8,0,0,0-1.813-.6,1.267,1.267,0,0,0-1.4,1.022,2.372,2.372,0,0,0,.419,1.1,3.677,3.677,0,0,1-1.379,4.759,3.045,3.045,0,0,0-3.784.467,5.337,5.337,0,0,0-1.39,3.8,26.833,26.833,0,0,0,.485,4.115c.074.5.132,1.011.18,1.519.055.566.1,1.14.143,1.714a28.2,28.2,0,0,0-4.895,3.42,3.235,3.235,0,0,0-.736.908,1.28,1.28,0,0,0-.033,1.144,1.428,1.428,0,0,0-.118,1.287l6.638.029h0l4.174.018h0l5.262-10.5.809-1.614,4.681-9.337A5.737,5.737,0,0,0,521.422,338.935Z" transform="translate(-318.062 -213.341)" fill="#ccad38"/>
                      <path id="Trazado_717278" data-name="Trazado 717278" d="M416.9,291.971c-.092.331-.188.662-.28,1-.033.125-.074.254-.107.368-1.225,4.314-2.67,8.951-3.839,13.191-11.4,1.809-23.535-.842-35.016-2.063a71.628,71.628,0,0,1-12.5-2.078,14.508,14.508,0,0,1-4.817-2.206,6.528,6.528,0,0,1-2.662-4.45c-.228-2.552,1.471-4.854,3.118-6.811a112.992,112.992,0,0,1,12.8-12.8,41.1,41.1,0,0,1,4.667-3.769,34.161,34.161,0,0,1,11.455-3.85,209.113,209.113,0,0,1,22.41-2.648,9.924,9.924,0,0,1,2.824,9.583,16.255,16.255,0,0,1-5.623,8.646,43.906,43.906,0,0,1-7.991,5.1l-.761.4-.114.063C405.79,289.713,411.574,291.463,416.9,291.971Z" transform="translate(-226.13 -168.086)" fill="#ccad38"/>
                      <path id="Trazado_717279" data-name="Trazado 717279" d="M463.1,300.452c-.033.125-.074.254-.107.368-6.7-.338-13.5-.5-20.226-.485h-.243c-3.063,0-6.215.018-9.146-.975-.787-.265-2.122-.894-2.206-2.1a2.879,2.879,0,0,1,1.276-2.206,48.9,48.9,0,0,1,8.965-5.715c1.1-.588,2.206-1.2,3.31-1.839,3.328-1.916,8-5,10.161-9.7a.2.2,0,0,1,.257-.1.188.188,0,0,1,.092.254c-2.206,4.806-6.943,7.94-10.3,9.881-1.1.625-2.206,1.232-3.31,1.839a48.085,48.085,0,0,0-8.9,5.671,2.564,2.564,0,0,0-1.14,1.883c.066.989,1.243,1.53,1.942,1.765,2.865.971,6,.964,9.021.956h.243C449.53,299.948,456.359,300.11,463.1,300.452Z" transform="translate(-272.61 -175.567)" fill="#ccad38"/>
                      <path id="Trazado_717280" data-name="Trazado 717280" d="M454.659,328.989l-.761.4c-.927,0-1.857.022-2.784.022-2.975,0-5.957-.07-8.91-.21a.191.191,0,0,1-.184-.2.2.2,0,0,1,.206-.188C446.344,329.015,450.522,329.077,454.659,328.989Z" transform="translate(-279.471 -207.9)" fill="#ccad38"/>
                      <path id="Trazado_717281" data-name="Trazado 717281" d="M459.907,324.347a.2.2,0,0,1-.077,0l-5.534-2.493a.2.2,0,0,1-.1-.257.191.191,0,0,1,.254-.1L460,323.975a.195.195,0,0,1-.081.368Z" transform="translate(-287.161 -203.261)" fill="#ccad38"/>
                      <path id="Trazado_717282" data-name="Trazado 717282" d="M456.462,332.744h-.191a.191.191,0,0,1-.191-.195.18.18,0,0,1,.195-.191,20.662,20.662,0,0,0,4.847-.537.193.193,0,1,1,.088.375A20.85,20.85,0,0,1,456.462,332.744Z" transform="translate(-288.36 -209.793)" fill="#ccad38"/>
                      <path id="Trazado_717283" data-name="Trazado 717283" d="M405.586,186.625c-.1.1-.206.195-.316.291l-.173.14a10.984,10.984,0,0,1-1.732,1.136c-.11.063-.228.118-.342.177a16.232,16.232,0,0,1-3.916,1.3l-.368.074c-.349.066-.7.118-1.044.169-.629.088-1.254.158-1.883.21-.129,0-.257.022-.386.033-1.916.154-3.843.206-5.755.4-3.159.32-6.384,1.022-9.48.291-2.7-.644-5.012-2.324-7.219-4q-9.627-7.307-18.516-15.515c-2.085-1.927-4.781-3.31-6.274-5.737a10.608,10.608,0,0,1-1.375-8.179,17.8,17.8,0,0,0,.7-2.666,20.783,20.783,0,0,0-.445-3.964,8.168,8.168,0,0,1,.783-4.678,5.174,5.174,0,0,1,1.971-2.015,5.466,5.466,0,0,0,2.03-2.7,9.384,9.384,0,0,1,1.666-2.982v-.018a2.6,2.6,0,0,1,3.1-.607c.735.463,1.026,1.353,1.581,2.012a4.648,4.648,0,0,0,3.376,1.423,30.653,30.653,0,0,0,3.755-.279,24.379,24.379,0,0,1,9.521,1.471,44.456,44.456,0,0,1,29.938,36.7,2.109,2.109,0,0,0,.033.261l.118.1a5.761,5.761,0,0,1,2.273,3.516A4.32,4.32,0,0,1,405.586,186.625Z" transform="translate(-219.076 -86.927)" fill="#ffd947"/>
                      <path id="Trazado_717284" data-name="Trazado 717284" d="M502.922,260.074c-.1.1-.206.195-.316.291-.621-2.181-1.342-4.339-2.148-6.45a.191.191,0,0,1,.11-.246.2.2,0,0,1,.25.11C501.606,255.838,502.312,257.945,502.922,260.074Z" transform="translate(-316.412 -160.376)" fill="#ffd947"/>
                      <path id="Trazado_717285" data-name="Trazado 717285" d="M496.286,263.592c-.11.063-.228.118-.342.177l-1.614-4.126a16.009,16.009,0,0,1-.846-2.618.195.195,0,1,1,.368-.066,16.045,16.045,0,0,0,.824,2.545Z" transform="translate(-311.997 -162.327)" fill="#ffd947"/>
                      <path id="Trazado_717286" data-name="Trazado 717286" d="M486.474,267.737l-.368.074c-.555-2.354-.952-4.284-1.423-6.619a.191.191,0,0,1,.151-.228.2.2,0,0,1,.228.151C485.532,263.453,485.918,265.388,486.474,267.737Z" transform="translate(-306.443 -164.995)" fill="#ffd947"/>
                      <path id="Trazado_717287" data-name="Trazado 717287" d="M478.836,269.89c-.129,0-.257.022-.386.033-.206-1.89-.46-4.181-.621-6.064a.191.191,0,0,1,.18-.21.2.2,0,0,1,.21.177C478.373,265.709,478.626,268,478.836,269.89Z" transform="translate(-302.111 -166.695)" fill="#ffd947"/>
                      <path id="Trazado_717288" data-name="Trazado 717288" d="M483.114,251.04a52.5,52.5,0,0,1-12.838,5.707l-.107-.368a52.22,52.22,0,0,0,12.808-5.7,2.109,2.109,0,0,0,.033.261Z" transform="translate(-297.27 -158.495)" fill="#ffd947"/>
                      <path id="Trazado_717289" data-name="Trazado 717289" d="M405.181,168.064a12.412,12.412,0,0,0-1.151-2.449,1.838,1.838,0,0,0-1.449-1.03h0a1.839,1.839,0,0,0-1.158.544,12.647,12.647,0,0,0-1.872,2.089l-.029.044a8.387,8.387,0,0,0-1.64,3.288c-3.137,3.883-11.4,7.6-11.4,7.6a8.487,8.487,0,0,1-1.839.169H384.2a10.642,10.642,0,0,1-2.692-.526c-.125-.044-.25-.085-.368-.132a13.238,13.238,0,0,1-3.368-1.839c-.107-.081-.213-.162-.316-.246s-.206-.162-.305-.246a19,19,0,0,1-1.923-1.839c-.1-.114-.2-.221-.294-.335a38.614,38.614,0,0,1-3.2-4.317,22.177,22.177,0,0,0-3.508-4.545c-1.431-1.283-2.832-2.309-4.722-1.993-.346.294-.7.585-1.041.872l-.482.375q-1.8,1.471-3.641,2.905l.18-4.413A36.638,36.638,0,0,1,362.431,147h-2.574c-4.987,3.71-3.335,18.155-3.023,20.553a73.575,73.575,0,0,1-6.469,4.269l-4.95-11.907a7.088,7.088,0,0,0-1.978,2.53c-.379,1.221,5,10.448,5,10.448q.735,1.544,1.533,3.052c.066.132.136.265.206.393q1.526,2.872,3.277,5.615c.092.147.191.3.291.445h0c.544.853,1.1,1.692,1.7,2.526a7.557,7.557,0,0,1-1.037,3.221c-.059.118-.125.228-.191.342-.717,1.225-1.622,2.394-2.331,3.655q-.088.147-.165.3a1.048,1.048,0,0,0-.059.11,10.6,10.6,0,0,0-1.471,6.049,2.656,2.656,0,0,0,.059.368,5.148,5.148,0,0,0,.607,1.633c1.214,2.092,3.714,2.975,5.884,4.078a22.009,22.009,0,0,1,7.638,6.454c2.445,3.284,3.7,7.425,6.914,9.966a12.366,12.366,0,0,1,.986-2.81c.077-.158.154-.316.239-.471a15.12,15.12,0,0,1,1.011-1.64h0c.088-.132.184-.265.283-.393a35.484,35.484,0,0,1,6.5-6.336c3.913-3.133,8.123-6.391,9.844-11.1a17.5,17.5,0,0,0,.173-10.256,43.49,43.49,0,0,0-1.839-5.472c-.048-.125-.1-.25-.147-.368-.18-.441-.368-.879-.555-1.313a76.427,76.427,0,0,0,6.917-4.269l.412-.294a27.042,27.042,0,0,0,4.28-3.63,13.76,13.76,0,0,1,3.975,1.989l.684-.934a15.025,15.025,0,0,0-3.31-1.817h.063c.11-.018.213-.04.3-.051a14.64,14.64,0,0,0,2.64-.677,2.574,2.574,0,0,0,1.471-1.044A2.726,2.726,0,0,0,405.181,168.064Zm-1.008,1.581a1.636,1.636,0,0,1-.857.522,12.911,12.911,0,0,1-2.42.621,1.736,1.736,0,0,0-.335.059c-.408.077-1.258.232-1.5.044,0,0-.368-.456,1.408-2.975l.029-.037a10.8,10.8,0,0,1,1.692-1.894c.07-.066.283-.25.393-.254.029,0,.184.022.456.471a11.493,11.493,0,0,1,1.048,2.225A1.688,1.688,0,0,1,404.173,169.645Z" transform="translate(-217.129 -92.942)" fill="#ffa686"/>
                      <path id="Trazado_717290" data-name="Trazado 717290" d="M432.647,223.268a80.643,80.643,0,0,1-7.208,10.319,7.564,7.564,0,0,1-1.736,1.677,3.144,3.144,0,0,1-1.666.511,2.206,2.206,0,0,1-.754-.121c-1.125-.393-1.839-1.692-1.934-3.475a22.194,22.194,0,0,1,1.5-7.723c.673-2.1,1.357-4.233,2.081-6.366.1.114.195.221.294.335-.691,2.059-1.357,4.122-2.008,6.149a21.461,21.461,0,0,0-1.471,7.594c.026.61.232,2.629,1.673,3.133a2.471,2.471,0,0,0,2.089-.368,7.084,7.084,0,0,0,1.64-1.6,79.459,79.459,0,0,0,7.064-10.08A4.166,4.166,0,0,0,432.647,223.268Z" transform="translate(-265.13 -137.89)" fill="#ffa686"/>
                      <path id="Trazado_717291" data-name="Trazado 717291" d="M434,226.468q-2.129,3.611-4.3,7.164c-.607,1-1.3,1.53-1.953,1.53a1.17,1.17,0,0,1-.445-.088c-.78-.309-1.055-1.305-.735-2.673a38.245,38.245,0,0,1,3.067-8.4c.1.085.2.165.305.246a37.765,37.765,0,0,0-2.99,8.245c-.107.434-.368,1.883.5,2.206s1.618-.783,1.92-1.283c1.431-2.339,2.85-4.711,4.258-7.094A2.888,2.888,0,0,0,434,226.468Z" transform="translate(-269.624 -141.626)" fill="#ffa686"/>
                      <path id="Trazado_717292" data-name="Trazado 717292" d="M382.606,284.641a1.276,1.276,0,0,1-1.015.949,2,2,0,0,1-.416.044,3.6,3.6,0,0,1-.89-.143c-2.707-.7-5-2.361-7.311-4.148l-.32-.25a24.633,24.633,0,0,0-6.711-4.137,9.793,9.793,0,0,0-4.045-.511,2.666,2.666,0,0,1-.059-.368,10.054,10.054,0,0,1,4.225.53,24.98,24.98,0,0,1,6.818,4.2l.32.25c2.276,1.761,4.542,3.4,7.171,4.078a2.6,2.6,0,0,0,1.147.1.908.908,0,0,0,.717-.644c.11-.574-.555-1.026-1.144-1.357a17.552,17.552,0,0,1-6.807-6.987c-.213-.4-.412-.805-.607-1.214a10.876,10.876,0,0,0-2.3-3.516,7.02,7.02,0,0,0-3.832-1.552,20.829,20.829,0,0,0-4.229.063,1.05,1.05,0,0,1,.059-.11q.077-.147.165-.3a20.12,20.12,0,0,1,4.045-.037,7.355,7.355,0,0,1,4.045,1.644,11,11,0,0,1,2.394,3.637c.2.4.393.809.6,1.2a17.162,17.162,0,0,0,6.652,6.825C381.977,283.284,382.761,283.829,382.606,284.641Z" transform="translate(-228.777 -170.388)" fill="#ffa686"/>
                      <path id="Trazado_717293" data-name="Trazado 717293" d="M439.362,243.263a3.993,3.993,0,0,0-.934.927,7.617,7.617,0,0,0-1.21,3.843c-.048.482-.077.971-.1,1.449a20.911,20.911,0,0,1-.276,2.729c-.706,3.677-3.251,6.645-6.027,9.6-2.622,2.787-5.306,5.645-6.215,9.267a10.694,10.694,0,0,0,.088,5.354c-.1.129-.195.261-.283.393a11.087,11.087,0,0,1-.18-5.84c.934-3.722,3.655-6.619,6.285-9.418,2.754-2.942,5.266-5.84,5.954-9.429a20.551,20.551,0,0,0,.268-2.681c.029-.478.055-.975.1-1.471a8.312,8.312,0,0,1,1.283-4.045,4.487,4.487,0,0,1,1.1-1.07C439.263,243.013,439.315,243.138,439.362,243.263Z" transform="translate(-268.025 -153.557)" fill="#ffa686"/>
                      <path id="Trazado_717294" data-name="Trazado 717294" d="M373.738,190.91a12.922,12.922,0,0,1-4.895,7.84,25.645,25.645,0,0,1-2.714,1.673,15.816,15.816,0,0,0-3.806,2.626,7.485,7.485,0,0,0-.868,1.066c-.07-.129-.14-.261-.206-.393a8.066,8.066,0,0,1,.794-.945,16.432,16.432,0,0,1,3.894-2.692,25.747,25.747,0,0,0,2.67-1.644,12.478,12.478,0,0,0,4.648-7.13Z" transform="translate(-228.404 -120.705)" fill="#ffa686"/>
                      <path id="Trazado_717295" data-name="Trazado 717295" d="M443.215,226.5l-.412.294a5.884,5.884,0,0,0-3.744.272,10.043,10.043,0,0,0-4.645,5.167,38.128,38.128,0,0,0-1.4,3.773c-.331,1-.677,2.03-1.081,3.023a48.385,48.385,0,0,1-5.347,9.061l-.765,1.1c-2.162,3.144-4.358,6.538-5.38,10.407a14.341,14.341,0,0,0,.173,8.348c-.085.154-.162.313-.239.471a14.651,14.651,0,0,1-.305-8.918c1.033-3.927,3.251-7.355,5.435-10.528l.761-1.1a48.192,48.192,0,0,0,5.31-8.984c.4-.986.736-2.008,1.07-3a37.678,37.678,0,0,1,1.416-3.806,10.449,10.449,0,0,1,4.839-5.365A6.156,6.156,0,0,1,443.215,226.5Z" transform="translate(-265.251 -143.02)" fill="#ffa686"/>
                      <path id="Trazado_717296" data-name="Trazado 717296" d="M386.507,253.77a2.153,2.153,0,0,1-1.956.9,5.985,5.985,0,0,1-1.328-.169c-4.314-1.037-8.223-3.453-11.746-5.884.066-.114.132-.224.191-.342,3.5,2.412,7.384,4.817,11.646,5.843.82.2,2.287.386,2.861-.552a2.435,2.435,0,0,0-.32-2.4,15.077,15.077,0,0,0-5.928-5.954,29.5,29.5,0,0,0-8.918-2.688h0c-.1-.147-.2-.3-.291-.445l.272.048a30.336,30.336,0,0,1,9.124,2.747,15.53,15.53,0,0,1,6.082,6.112C386.827,252.145,386.93,253.083,386.507,253.77Z" transform="translate(-234.391 -153.058)" fill="#ffa686"/>
                      <path id="Trazado_717297" data-name="Trazado 717297" d="M291.892,330a32.36,32.36,0,0,1-6.388,2.633,3.842,3.842,0,0,0-1.022.4,1.173,1.173,0,0,0-.57.894c-.022.658.669,1.1,1.291,1.313a8.5,8.5,0,0,0,2.725.463,25.977,25.977,0,0,0-4.626,5.24,1.912,1.912,0,0,0-.309.824.735.735,0,0,0,.4.735,1.037,1.037,0,0,0,.849-.169,9.427,9.427,0,0,0,2.092-1.559,13.639,13.639,0,0,0-1.982,3.372,2.148,2.148,0,0,0-.2.791.8.8,0,0,0,.368.7c.423.246.934-.085,1.3-.408a26.6,26.6,0,0,0,3.041-3.166,29.627,29.627,0,0,0-1.515,3.677,1.946,1.946,0,0,0-.136.706.688.688,0,0,0,.342.6c.368.195.809-.121,1.1-.427a38.982,38.982,0,0,0,3.269-3.979c-.125.9-.261,1.927-.386,2.832-.059.416-.037.974.368,1.1s.7-.272.9-.6c2.111-3.442,4.266-7.013,4.832-11.006a13.249,13.249,0,0,1-4.876-3.31A2.843,2.843,0,0,1,291.892,330Z" transform="translate(-178.922 -208.646)" fill="#ffa686"/>
                      <path id="Trazado_717298" data-name="Trazado 717298" d="M351.014,177.736a97.018,97.018,0,0,1-37.164,58.441,1.1,1.1,0,0,1-.029.151,1.585,1.585,0,0,1-.136.368,2.655,2.655,0,0,1-1.953,1.442c-.243-.143-.478-.287-.713-.438l-.324-.217a22.226,22.226,0,0,1-2.228-1.7c-.1-.085-.2-.169-.294-.261a18.808,18.808,0,0,1-1.5-1.471c-.107-.118-.21-.232-.316-.368s-.169-.2-.246-.309a3.023,3.023,0,0,1-.658-1.493c-.107-1.037.735-1.7,1.471-2.445.1-.1.195-.2.283-.3s.213-.246.305-.368c11.885-16.32,23.984-33.06,29.721-52.414a24.367,24.367,0,0,1,6.873-.824C346.645,175.673,349.293,175.864,351.014,177.736Z" transform="translate(-193.121 -110.969)" fill="#ffd947"/>
                      <path id="Trazado_717299" data-name="Trazado 717299" d="M384.14,186.954a.147.147,0,0,1-.055,0,.188.188,0,0,1-.114-.257c.787-2.574,1.7-5.148,2.7-7.638a.191.191,0,0,1,.243-.085.2.2,0,0,1,.11.25c-1,2.486-1.9,5.045-2.688,7.6a.2.2,0,0,1-.195.125Z" transform="translate(-242.758 -113.148)" fill="#ffd947"/>
                      <path id="Trazado_717300" data-name="Trazado 717300" d="M422.268,192.928a.147.147,0,0,1-.055,0,.188.188,0,0,1-.129-.239c.9-2.971,1.673-6.024,2.284-9.065a.195.195,0,1,1,.368.077c-.61,3.056-1.383,6.116-2.295,9.1a.191.191,0,0,1-.173.129Z" transform="translate(-266.861 -115.967)" fill="#ffd947"/>
                      <path id="Trazado_717301" data-name="Trazado 717301" d="M316.4,328.574a1.586,1.586,0,0,1-.136.368q-.735-.463-1.438-1c-.107-.074-.2-.154-.3-.235a18.591,18.591,0,0,1-2.008-1.839c-.092-.092-.18-.191-.265-.287a18.489,18.489,0,0,1-1.556-1.953l-.228-.338a16.837,16.837,0,0,1-.945-1.585c.1-.1.195-.2.283-.3a17.224,17.224,0,0,0,1.044,1.754.261.261,0,0,0,.044.066,18.673,18.673,0,0,0,3.905,4.2l.2.154A16.188,16.188,0,0,0,316.4,328.574Z" transform="translate(-195.697 -203.215)" fill="#ffd947"/>
                      <path id="Trazado_717302" data-name="Trazado 717302" d="M309.43,326.364l-.165.21c-.6.735-1.191,1.53-1.758,2.324-.085-.1-.169-.2-.246-.309.566-.8,1.166-1.592,1.776-2.354l.092-.118a.195.195,0,0,1,.276-.026h0a.262.262,0,0,0,.044.066.2.2,0,0,1-.018.206Z" transform="translate(-194.268 -206.146)" fill="#ffd947"/>
                      <path id="Trazado_717303" data-name="Trazado 717303" d="M314.706,332.776l-.081.1a24.517,24.517,0,0,0-1.471,2.159c-.1-.085-.2-.169-.294-.261a24.691,24.691,0,0,1,1.5-2.184l.037-.051a.195.195,0,0,1,.309.235Z" transform="translate(-197.809 -210.212)" fill="#ffd947"/>
                      <path id="Trazado_717304" data-name="Trazado 717304" d="M321.445,337.964a.206.206,0,0,1-.029.147c-.048.07-.1.14-.143.21-.438.644-.853,1.313-1.228,2l-.324-.217a20.184,20.184,0,0,1,1.25-2.019l.125-.191a.2.2,0,0,1,.151-.085.228.228,0,0,1,.118.033A.224.224,0,0,1,321.445,337.964Z" transform="translate(-202.146 -213.584)" fill="#ffd947"/>
                      <path id="Trazado_717305" data-name="Trazado 717305" d="M284.644,104.323a7.614,7.614,0,0,1-7.609-4.089,10.208,10.208,0,0,1,.04-8.9,5.277,5.277,0,0,1,3.019-3.052,20.611,20.611,0,0,1,3.346-.191c3.21-.368,5.31-3.736,8.429-4.589a5.843,5.843,0,0,1,5.038,1.008c.824.64,1.574,1.552,2.618,1.622s1.912-.735,2.92-.971a3.567,3.567,0,0,1,3.107.923,7.528,7.528,0,0,1,1.82,2.8,17.284,17.284,0,0,1,1.2,8.546c-.195,1.71-.857,3.637-2.479,4.222a28.38,28.38,0,0,0-8.179-2.607,14.954,14.954,0,0,0-8.384,1.357A27.29,27.29,0,0,0,284.644,104.323Z" transform="translate(-174.524 -52.67)" fill="#adce32"/>
                      <path id="Trazado_717306" data-name="Trazado 717306" d="M317.045,115.686a2.776,2.776,0,0,1-1.368,1.839,2.011,2.011,0,0,1-.533.173,19.49,19.49,0,0,1,.776,5.748,7.285,7.285,0,0,1-10.308,6.994,13.974,13.974,0,0,1-3.968-2.122,18.92,18.92,0,0,1-2.574-2.324,28.659,28.659,0,0,1-2.412-3.045c-.78-1.1-1.5-2.284-2.206-3.457a15.391,15.391,0,0,1-1.828-3.961,5.529,5.529,0,0,1,.452-4.24,7.813,7.813,0,0,1,2.673-2.35,47.932,47.932,0,0,1,5.744-3.012,9.668,9.668,0,0,1,4.909-1.1,6.987,6.987,0,0,1,3.582,1.383,13.341,13.341,0,0,1,2.824,4.218c.051.125.107.246.158.368a.052.052,0,0,1,.018-.04,1.772,1.772,0,0,1,1.158-.982,1.7,1.7,0,0,1,1.375.64,6.141,6.141,0,0,1,1.471,2.942A5.218,5.218,0,0,1,317.045,115.686Z" transform="translate(-184.875 -66.255)" fill="#fad1c2"/>
                      <ellipse id="Elipse_5342" data-name="Elipse 5342" cx="3.669" cy="3.669" rx="3.669" ry="3.669" transform="matrix(0.16, -0.987, 0.987, 0.16, 120.97, 55.581)" fill="#ffbdad"/>
                      <path id="Trazado_717307" data-name="Trazado 717307" d="M310.023,155.469a3.678,3.678,0,0,1-1.066,2.574,18.919,18.919,0,0,1-2.574-2.324,28.65,28.65,0,0,1-2.412-3.045,3.677,3.677,0,0,1,6.038,2.784Z" transform="translate(-192.188 -95.988)" fill="#ffbdad"/>
                      <path id="Trazado_717308" data-name="Trazado 717308" d="M353.861,133.766v.018a9.345,9.345,0,0,0-1.666,2.982,5.45,5.45,0,0,1-2.03,2.7,5.174,5.174,0,0,0-1.971,2.015,10.72,10.72,0,0,1-1.136-4.17,10.271,10.271,0,0,1,1.386-5.81,2.942,2.942,0,0,1,1.1-1.18,1.556,1.556,0,0,1,1.761.279A13.893,13.893,0,0,0,353.861,133.766Z" transform="translate(-219.418 -82.305)" fill="#fad1c2"/>
                      <path id="Trazado_717309" data-name="Trazado 717309" d="M313.977,113.628c-2.534-3.376-2.574-6.362-2.449-7.09a5.66,5.66,0,0,0-.736-3.438,6.049,6.049,0,0,0-2.6-2.99,7.171,7.171,0,0,0-4.7-.614,17.537,17.537,0,0,0-4.534,1.64,29.957,29.957,0,0,0-6.027,3.677,7.842,7.842,0,0,0-2.821,3.865,6.243,6.243,0,0,0,1.909,5.792,7.076,7.076,0,0,1-.952-3.424,1.305,1.305,0,0,1,.923-1.2,6.987,6.987,0,0,1,1.772-.3,10.473,10.473,0,0,0,7.278-4.292,8.4,8.4,0,0,1,1.2-1.545,1.868,1.868,0,0,1,1.806-.482c.684.243,1.081,1.015,1.776,1.228a6.363,6.363,0,0,1,1.026.221,1.291,1.291,0,0,1,.618,1.037,7.173,7.173,0,0,1-.051,1.254,5.281,5.281,0,0,0,1.372,3.813,9.72,9.72,0,0,1,1.305,4.273,3.8,3.8,0,0,1-.9,3.155,3.629,3.629,0,0,1-2.092.8c-.758.077-1.522.044-2.273.158a5.943,5.943,0,0,0-3.641,2.041c-.39.463-.706.989-1.136,1.416a2.85,2.85,0,0,1-1.839.618s6.873,9.3,13.415,6.553S316.507,117.008,313.977,113.628Z" transform="translate(-183.322 -62.81)" fill="#adce32"/>
                      <path id="Trazado_717310" data-name="Trazado 717310" d="M324.422,134.83a1.133,1.133,0,1,1,.11-1.427,1.022,1.022,0,0,1-.11,1.427Z" transform="translate(-203.884 -84.037)" fill="#8a3535"/>
                      <path id="Trazado_717311" data-name="Trazado 717311" d="M306.462,144.98a1.133,1.133,0,1,1,.11-1.427A1.022,1.022,0,0,1,306.462,144.98Z" transform="translate(-192.529 -90.455)" fill="#8a3535"/>
                      <path id="Trazado_717312" data-name="Trazado 717312" d="M319.391,143.3a1.317,1.317,0,0,1-1.066-.485,2.015,2.015,0,0,1-.224-1.4v-.077a9.614,9.614,0,0,0-.4-3.626.194.194,0,1,1,.371-.114,10.073,10.073,0,0,1,.419,3.773v.063a1.7,1.7,0,0,0,.151,1.144.927.927,0,0,0,.772.331,2.309,2.309,0,0,0,.934-.265.195.195,0,0,1,.165.353,2.681,2.681,0,0,1-1.1.3Z" transform="translate(-200.861 -86.909)" fill="#df856d"/>
                      <path id="Trazado_717313" data-name="Trazado 717313" d="M328.264,153.955a.195.195,0,0,1-.107-.368,3.648,3.648,0,0,0,1.592-3.468.191.191,0,1,1,.368-.051,4,4,0,0,1-1.765,3.843.188.188,0,0,1-.088.044Z" transform="translate(-207.413 -94.748)" fill="#8a3535"/>
                      <path id="Trazado_717314" data-name="Trazado 717314" d="M350.676,124.267a.2.2,0,0,1-.169-.1,1.839,1.839,0,0,1,.875-2.6,1.177,1.177,0,0,1,1.243.121.2.2,0,0,1,0,.272.188.188,0,0,1-.272,0,.82.82,0,0,0-.835-.051,1.453,1.453,0,0,0-.691,2.052.2.2,0,0,1-.07.265A.217.217,0,0,1,350.676,124.267Z" transform="translate(-221.459 -76.784)" fill="#df856d"/>
                      <path id="Trazado_717315" data-name="Trazado 717315" d="M353.56,124.29a2.942,2.942,0,0,0-1.144-1.53,2.864,2.864,0,0,1-.276.283,2.523,2.523,0,0,1,.956,3.148.191.191,0,0,0,.1.254.2.2,0,0,0,.077.018.2.2,0,0,0,.177-.118A2.942,2.942,0,0,0,353.56,124.29Z" transform="translate(-222.644 -77.616)" fill="#df856d"/>
                      <path id="Trazado_717316" data-name="Trazado 717316" d="M318.3,117.134a1.684,1.684,0,0,1,.831-.8,3.413,3.413,0,0,1,1.1-.268,3.31,3.31,0,0,1,2.155.515.2.2,0,0,1-.125.368h0a7.535,7.535,0,0,0-1.887.11,7.658,7.658,0,0,0-.875.235,3.883,3.883,0,0,1-.975.158h0a.224.224,0,0,1-.232-.217A.228.228,0,0,1,318.3,117.134Z" transform="translate(-201.241 -73.373)" fill="#e86033"/>
                      <path id="Trazado_717317" data-name="Trazado 717317" d="M298.136,127.355a1.677,1.677,0,0,0-1.151,0,3.475,3.475,0,0,0-.993.559,3.31,3.31,0,0,0-1.221,1.839.2.2,0,0,0,.154.239.2.2,0,0,0,.184-.055h0a7.506,7.506,0,0,1,1.471-1.214,8.737,8.737,0,0,1,.8-.423,3.974,3.974,0,0,0,.824-.552h0a.221.221,0,0,0,0-.316A.21.21,0,0,0,298.136,127.355Z" transform="translate(-186.369 -80.457)" fill="#e86033"/>
                      <path id="Trazado_717318" data-name="Trazado 717318" d="M290.359,147.057a6.4,6.4,0,1,1,6.4-6.4A6.4,6.4,0,0,1,290.359,147.057Zm0-12.408a6.013,6.013,0,1,0,6.009,6.011A6.013,6.013,0,0,0,290.359,134.65Z" transform="translate(-179.536 -84.887)" fill="#8a3535"/>
                      <path id="Trazado_717319" data-name="Trazado 717319" d="M323,130.757a6.4,6.4,0,1,1,6.4-6.4A6.4,6.4,0,0,1,323,130.757Zm0-12.415a6.013,6.013,0,1,0,6.013,6.013A6.013,6.013,0,0,0,323,118.342Z" transform="translate(-200.173 -74.581)" fill="#8a3535"/>
                      <path id="Trazado_717320" data-name="Trazado 717320" d="M196.5,133.914c-1.989-3.953-2.545-8.48-2.574-12.9s.452-8.844.39-13.272A54.506,54.506,0,0,0,192.48,94.5a16.1,16.1,0,0,1,8.491,11.106,29.407,29.407,0,0,1-.735,14.551C198.985,124.725,197.04,129.215,196.5,133.914Z" transform="translate(-121.697 -59.749)" fill="#0b481e"/>
                      <path id="Trazado_717321" data-name="Trazado 717321" d="M169.664,149.88a12.023,12.023,0,0,1-5.788-5.329,34.914,34.914,0,0,1-2.942-7.436L155.51,119.81A57.558,57.558,0,0,1,169.664,149.88Z" transform="translate(-98.323 -75.751)" fill="#0b481e"/>
                      <path id="Trazado_717322" data-name="Trazado 717322" d="M209.5,181.16a23.58,23.58,0,0,1,2.964-12.294,107.329,107.329,0,0,1,6.9-10.782,137.3,137.3,0,0,0,7.3-12.084,16.484,16.484,0,0,1,1.228,8.418,27.212,27.212,0,0,1-2.295,8.307,41.47,41.47,0,0,1-16.1,18.435Z" transform="translate(-132.432 -92.31)" fill="#0b481e"/>
                      <path id="Trazado_717323" data-name="Trazado 717323" d="M203.643,270.69c-.548-3.03.691-6.09,2.17-8.789a46.234,46.234,0,0,1,4.939-7.281A64.34,64.34,0,0,0,216.087,248a33.615,33.615,0,0,1-9.966,19.836C205.213,268.7,203.926,269.458,203.643,270.69Z" transform="translate(-128.671 -156.8)" fill="#0b481e"/>
                      <path id="Trazado_717324" data-name="Trazado 717324" d="M187.854,268.295a29.188,29.188,0,0,0-8.936-19.965,19.287,19.287,0,0,0,2.556,10.525,61.63,61.63,0,0,0,6.38,9.44Z" transform="translate(-113.092 -157.009)" fill="#0b481e"/>
                      <path id="Trazado_717325" data-name="Trazado 717325" d="M130.663,219.307l.044.283a10.811,10.811,0,0,0,5-2.813c1.442-1.294,2.743-2.758,4.306-3.905a13.9,13.9,0,0,1,9.006-2.637,6.785,6.785,0,0,0-3.931-1.677,12.607,12.607,0,0,0-8.708,2.648,24.546,24.546,0,0,0-6.042,7.039C130.067,218.674,130.336,218.9,130.663,219.307Z" transform="translate(-82.338 -131.825)" fill="#0b481e"/>
                      <path id="Trazado_717326" data-name="Trazado 717326" d="M88,226.344c2.265-3.118,4.17-6.483,6.252-9.73a41.639,41.639,0,0,1,7.256-8.954,18.951,18.951,0,0,1,10.3-4.884,12.407,12.407,0,0,1,10.5,3.677c-2.206-1.283-5.17-.879-7.52.151a15.9,15.9,0,0,0-5.858,4.869c-1.6,2.008-2.942,4.211-4.457,6.274a25.461,25.461,0,0,1-7.028,6.733A14.665,14.665,0,0,1,88,226.344Z" transform="translate(-55.639 -128.157)" fill="#0b481e"/>
                      <path id="Trazado_717327" data-name="Trazado 717327" d="M151.63,213.891a11.433,11.433,0,0,0-3.012,4.126c-.735,1.559-1.232,3.207-1.839,4.817-2.453,6.619-6.524,12.812-12.389,16.736a36.442,36.442,0,0,1,5.884-18.659,19.152,19.152,0,0,1,4.733-5.314A9.517,9.517,0,0,1,151.63,213.891Z" transform="translate(-84.969 -135.195)" fill="#0b481e"/>
                      <line id="Línea_3875" data-name="Línea 3875" x1="0.165" y2="92.108" transform="translate(74.673 50.476)" fill="#0b481e"/>
                      <path id="Trazado_717328" data-name="Trazado 717328" d="M176.26,209.54a25.5,25.5,0,0,1,5.965,6.344,41.065,41.065,0,0,1,4,7.759" transform="translate(-111.442 -132.484)" fill="#0b481e"/>
                      <path id="Trazado_717329" data-name="Trazado 717329" d="M203.35,233.953a46.942,46.942,0,0,1,7.594-19.163" transform="translate(-128.57 -135.803)" fill="#0b481e"/>
                      <path id="Trazado_717330" data-name="Trazado 717330" d="M203.35,284.126a77.984,77.984,0,0,1,7.9-14.206" transform="translate(-128.57 -170.66)" fill="#0b481e"/>
                      <path id="Trazado_717331" data-name="Trazado 717331" d="M192.532,276.293a49.932,49.932,0,0,0-6.252-13.823" transform="translate(-117.777 -165.949)" fill="#0b481e"/>
                      <path id="Trazado_717332" data-name="Trazado 717332" d="M184.68,187.5a43.983,43.983,0,0,1,4.578,7.906,43.948,43.948,0,0,1,2.247,9.072" transform="translate(-116.766 -118.549)" fill="#0b481e"/>
                      <path id="Trazado_717333" data-name="Trazado 717333" d="M194.254,383.424c-.629-.276-1.4-.555-1.563-1.225a1.276,1.276,0,0,1,.3-1.074,3.728,3.728,0,0,1,.879-.706,1.243,1.243,0,0,0-.735-1.427,2.412,2.412,0,0,0-1.706-.022c-.559.165-1.081.43-1.64.6a4.92,4.92,0,0,1-2.6.055,14.9,14.9,0,0,0-1.7-.485,1.7,1.7,0,0,0-1.611.515,1.522,1.522,0,0,0-.033,1.607,3.677,3.677,0,0,0,1.184,1.191c-.177-.125-1.423.868-1.589,1a8.627,8.627,0,0,0-1.383,1.383,8.355,8.355,0,0,0-1.673,3.493c-.129.61-.088.537.335.581a11.525,11.525,0,0,0,1.236,0h15.11C196.982,388.418,197.508,384.858,194.254,383.424Z" transform="translate(-114.005 -239.516)" fill="#0b481e"/>
                      <path id="Trazado_717334" data-name="Trazado 717334" d="M193.347,398.735H173.511a3.115,3.115,0,0,1-.1-2.523,2.159,2.159,0,0,1,1-1.1,2.026,2.026,0,0,1,1.964.25,3.872,3.872,0,0,1,1.247,1.625,2.056,2.056,0,0,1,1.1-1.5,1.931,1.931,0,0,1,2.681,1.776,8.781,8.781,0,0,1,1.511-2.629,2.5,2.5,0,0,1,4.277.294,8.233,8.233,0,0,1,.8,1.975,1.5,1.5,0,0,1,1.39-1.368,1.6,1.6,0,0,1,1.559,1.287,1.166,1.166,0,0,1,1.191-.445,1.537,1.537,0,0,1,.971.857A3.1,3.1,0,0,1,193.347,398.735Z" transform="translate(-109.502 -248.841)" fill="#0b481e"/>
                      <path id="Trazado_717335" data-name="Trazado 717335" d="M167.79,410.512a1.008,1.008,0,0,0,.758.853,2.166,2.166,0,0,0,1.839-.21.993.993,0,0,0,.526-.735.872.872,0,0,0-.515-.735C169.665,409.306,167.8,409.4,167.79,410.512Z" transform="translate(-106.087 -258.901)" fill="#0b481e"/>
                      <path id="Trazado_717336" data-name="Trazado 717336" d="M176.68,412.367a.735.735,0,0,0,.265.816.842.842,0,0,0,.849-.129,1.353,1.353,0,0,0,.57-.794.864.864,0,0,0-.313-.89C177.4,410.914,176.827,411.844,176.68,412.367Z" transform="translate(-111.685 -260.016)" fill="#0b481e"/>
                      <path id="Trazado_717337" data-name="Trazado 717337" d="M225.037,411.286a.916.916,0,0,0,.879.11.824.824,0,0,0,.368-.776c-.037-.735-.941-1.57-1.677-1.1S224.508,410.955,225.037,411.286Z" transform="translate(-141.799 -258.836)" fill="#0b481e"/>
                    </g>
                  </g>
                </g>
              </g>
            </g>
          </g>
        </g>
      </g>
    </g>
  </g>
</svg>
