<svg xmlns="http://www.w3.org/2000/svg" width="440" height="384" viewBox="0 0 440 384">
  <g id="hombre_fumigando" data-name="hombre fumigando" transform="translate(0 -20.532)">
    <g id="BACKGROUND" transform="translate(0 404.531)">
      <path id="Trazado_717218" data-name="Trazado 717218" d="M440,240h0Z" transform="translate(0 -240)" fill="#f7e8df"/>
    </g>
    <g id="OBJECTS" transform="translate(26.355 20.532)">
      <path id="Trazado_717045" data-name="Trazado 717045" d="M253.122,208.983c-2.357,5.945-3.989,13.062-.6,18.476,1.332,2.133,3.422,3.947,3.814,6.451.575,3.651-2.665,6.653-5.538,8.93-8.044,6.367-16.121,13.492-19.793,23.148s-1.332,22.4,7.661,27.289,22.483,1.324,28.312,9.875c2.748,4.065,2.5,9.386,2.748,14.336a54.822,54.822,0,0,0,11.508,30.493c3.905,4.967,8.835,9.276,14.747,11.418s12.907,1.686,17.962-2.041c6.129-4.545,10.192-13.872,17.753-13.172,5.138.481,8.369,5.566,12,9.276,8.968,9.167,23.033,11.03,35.69,9.521,13.865-1.687,27.663-7,37.472-17.043s15.064-25.189,11.358-38.791c-3.864-14.226-16.654-25.669-16.779-40.418-.092-10.431,6.22-19.6,11.117-28.781,7.028-13.2,11.525-28.258,9.859-43.159-.483-4.318-1.557-8.745-4.272-12.109-4.047-4.992-10.767-6.62-16.388-9.664-14.93-8.1-21.859-26.917-20.235-43.985.575-6.055,1.932-12.7-1.307-17.827-3.139-4.984-9.485-6.628-15.255-7.53-4.672-.725-9.659-1.2-13.948.843-7.653,3.584-9.992,13.2-11.949,21.512s-5.7,17.886-13.948,19.648c-5.038,1.079-10.234-1.3-14.206-4.6s-7.12-7.522-10.884-11.072a43.53,43.53,0,0,0-17.97-10.17c-4.047-1.138-8.444-1.687-12.391-.2s-7.253,5.3-7.028,9.546c.233,4.4,3.864,7.7,6.27,11.376s3,9.765-.983,11.544c-3.731,1.687-8.036-2.1-11.974-1-4.547,1.256-5.08,7.91-2.823,12.109,4.164,7.826,12.449,13.265,5.246,22.355C262.307,193.121,256.911,199.454,253.122,208.983Z" transform="translate(-41.076 -52.859)" fill="#ffa686"/>
      <rect id="Rectángulo_361759" data-name="Rectángulo 361759" width="15.43" height="36.681" rx="7.715" transform="translate(221.284 183.627)" fill="#adce32"/>
      <path id="Trazado_717046" data-name="Trazado 717046" d="M276.81,273.963a19.158,19.158,0,0,0,5,2.432.733.733,0,0,0,.708-1.216,19.085,19.085,0,0,0-4.663-2.981,1.024,1.024,0,0,0-1.033,1.765Z" transform="translate(-59.266 -79.32)" fill="#adce32"/>
      <path id="Trazado_717047" data-name="Trazado 717047" d="M276.714,282.851a15.616,15.616,0,0,1,3.331.167,5.084,5.084,0,0,0,2.606.225.533.533,0,0,0,.233-.874,3.509,3.509,0,0,0-2.631-.908,16.46,16.46,0,0,0-3.564,0c-.833.1-.9,1.416,0,1.374Z" transform="translate(-59.206 -80.812)" fill="#adce32"/>
      <path id="Trazado_717048" data-name="Trazado 717048" d="M276.211,291.217c1.524-.475,3.089-.6,4.613-1.058a.674.674,0,0,0,0-1.282,8.777,8.777,0,0,0-5.063.683c-1.024.383-.616,2,.45,1.665Z" transform="translate(-59.14 -81.988)" fill="#adce32"/>
      <path id="Trazado_717049" data-name="Trazado 717049" d="M296.931,290.879c.833.658,1.815,1.182,2.673,1.857a6.353,6.353,0,0,0,2.5,1.557.608.608,0,0,0,.741-.741,4.558,4.558,0,0,0-2.157-2.415,12.006,12.006,0,0,0-3.156-1.665c-.916-.283-1.257.924-.6,1.424Z" transform="translate(-61.552 -82.081)" fill="#adce32"/>
      <path id="Trazado_717050" data-name="Trazado 717050" d="M297.653,285.76a24.963,24.963,0,0,1,3.056.275,8.144,8.144,0,0,0,2.656.175c.649-.108.566-.933.158-1.249-1.5-1.157-4.08-.983-5.871-.833a.833.833,0,0,0,0,1.665Z" transform="translate(-61.548 -81.234)" fill="#adce32"/>
      <path id="Trazado_717051" data-name="Trazado 717051" d="M296.852,278.646c2.19-.508,4.8-1.282,6.4-2.939.475-.491,0-1.482-.708-1.216-2.1.791-3.922,2.023-6.112,2.656a.778.778,0,0,0,.416,1.5Z" transform="translate(-61.418 -79.697)" fill="#adce32"/>
      <path id="Trazado_717052" data-name="Trazado 717052" d="M282.8,268.522c-1.5-2.881-2.9-5.829-4.463-8.677a.633.633,0,0,0-1.157.491,34.506,34.506,0,0,0,4.363,8.918.728.728,0,1,0,1.257-.733Z" transform="translate(-59.377 -77.289)" fill="#adce32"/>
      <path id="Trazado_717053" data-name="Trazado 717053" d="M295.361,267.208a24.072,24.072,0,0,0,5.629-7.561c.258-.633-.674-.883-1.016-.433a66.521,66.521,0,0,1-5.471,7.145.608.608,0,0,0,.833.833Z" transform="translate(-61.293 -77.212)" fill="#adce32"/>
      <path id="Trazado_717054" data-name="Trazado 717054" d="M281.077,295.255a36.112,36.112,0,0,0-6.8,6.862c-.516.716.608,1.549,1.207.933,2.207-2.257,4.338-4.588,6.712-6.662.774-.683-.341-1.74-1.116-1.116Z" transform="translate(-58.944 -82.962)" fill="#adce32"/>
      <path id="Trazado_717055" data-name="Trazado 717055" d="M295.211,296.534a41.194,41.194,0,0,0,7.428,9.459c.6.533,1.665-.166,1.174-.908-2.223-3.248-4.78-6.245-7.086-9.435C296.077,294.752,294.6,295.551,295.211,296.534Z" transform="translate(-61.276 -82.974)" fill="#adce32"/>
      <path id="Trazado_717056" data-name="Trazado 717056" d="M290.592,273.811a3.331,3.331,0,1,1-3.331-3.331A3.331,3.331,0,0,1,290.592,273.811Z" transform="translate(-60.108 -79.052)" fill="#adce32"/>
      <path id="Trazado_717057" data-name="Trazado 717057" d="M291.927,287.883a2.015,2.015,0,1,1-.587-1.43A2.023,2.023,0,0,1,291.927,287.883Z" transform="translate(-60.654 -81.517)" fill="#adce32"/>
      <path id="Trazado_717058" data-name="Trazado 717058" d="M289.47,299.575a2.115,2.115,0,1,1-2.115-2.115A2.115,2.115,0,0,1,289.47,299.575Z" transform="translate(-60.349 -83.365)" fill="#adce32"/>
      <path id="Trazado_717059" data-name="Trazado 717059" d="M292,264.464a1.016,1.016,0,1,1-.295-.724A1.024,1.024,0,0,1,292,264.464Z" transform="translate(-60.965 -77.954)" fill="#adce32"/>
      <path id="Trazado_717060" data-name="Trazado 717060" d="M295.849,279.646a1.024,1.024,0,1,1-1.024-1.016,1.024,1.024,0,0,1,1.024,1.016Z" transform="translate(-61.402 -80.375)" fill="#adce32"/>
      <path id="Trazado_717061" data-name="Trazado 717061" d="M287.094,281.832a1.974,1.974,0,1,1-.578-1.4A1.982,1.982,0,0,1,287.094,281.832Z" transform="translate(-60.12 -80.559)" fill="#adce32"/>
      <path id="Trazado_717062" data-name="Trazado 717062" d="M292.6,295.268a.708.708,0,1,1-.708-.708A.708.708,0,0,1,292.6,295.268Z" transform="translate(-61.129 -82.919)" fill="#adce32"/>
      <path id="Trazado_717063" data-name="Trazado 717063" d="M285.376,290.578a.708.708,0,1,1-.7-.708A.708.708,0,0,1,285.376,290.578Z" transform="translate(-60.309 -82.171)" fill="#adce32"/>
      <path id="Trazado_717064" data-name="Trazado 717064" d="M410.22,271.892a9.907,9.907,0,0,0-1.357,3.805,4.163,4.163,0,0,0,1.349,3.656c1.482,1.182,3.764.874,5.263,2.032,2.915,2.265.425,7.494,2.648,10.409a5.755,5.755,0,0,0,2.606,1.774,9.718,9.718,0,0,0,9.893-1.665c2.581-2.39,3.289-6.728,1.216-9.576a10.737,10.737,0,0,1-1.957-2.823c-.466-1.5.35-3.1,1.316-4.33s2.165-2.382,2.64-3.872a5.379,5.379,0,0,0-2.715-6.12,7.1,7.1,0,0,0-6.928.45,14.6,14.6,0,0,1-2.948,1.807c-2.107.7-4.213-.716-6.279-.15S411.2,270.093,410.22,271.892Z" transform="translate(-71.102 -77.968)" fill="#adce32"/>
      <path id="Trazado_717065" data-name="Trazado 717065" d="M415.287,268.584c-1.607-2.107-2.573-4.163-1.749-6.895.35-1.141.983-1.89.916-3.106a5.779,5.779,0,0,0-4.164-4.9c-.383-.108-.833.358-.558.716.833,1.116,2.5,1.832,2.906,3.089.591,1.707-.625,3.9-.641,5.7,0,2.24,1.249,4.247,2.6,5.921.3.375.966-.133.674-.525Z" transform="translate(-71.24 -76.329)" fill="#adce32"/>
      <path id="Trazado_717066" data-name="Trazado 717066" d="M421.113,269.107a7.57,7.57,0,0,0,.741-4.055c-.258-2.057-1.207-2.989-.833-5.221.45-2.715-1.083-4.238-2.54-6.5-.225-.358-.9-.258-.833.233a4.065,4.065,0,0,0,.658,1.949c.3.525.774.974,1.041,1.515.649,1.3.217,1.89.058,3.331a4.222,4.222,0,0,0,0,1.74c.2.766.758,1.424.991,2.173a6.312,6.312,0,0,1-.35,4.347c-.258.625.833,1.091,1.1.466Z" transform="translate(-72.578 -76.236)" fill="#adce32"/>
      <path id="Trazado_717067" data-name="Trazado 717067" d="M429.722,265.038c-1.207-2.015-2.39-3.955-1.457-6.3.308-.766,1.291-1.665,1.432-2.5a1.607,1.607,0,0,0-.35-1.407c-.5-.833-1.283-1.232-1.79-2.107-.416-.716-.666-1.491-1.107-2.2a.483.483,0,0,0-.9.241,5.463,5.463,0,0,0,1.307,3.431c.791,1.049,1.507.991.916,2.5-.191.475-.65.833-.833,1.366-1.082,2.656.508,5.338,1.9,7.494a.525.525,0,0,0,.908-.525Z" transform="translate(-73.9 -75.792)" fill="#adce32"/>
      <path id="Trazado_717068" data-name="Trazado 717068" d="M411.248,271.755c-2.065-.333-4.022-1.208-4.713-3.331-.458-1.416.258-2.565.067-3.914-.275-1.974-3.414-3.223-5-3.9-.466-.2-.833.5-.475.833,1.382,1.341,3.947,2.157,3.789,4.247a7.136,7.136,0,0,0,.416,3.8,5.488,5.488,0,0,0,5.929,3.173.45.45,0,0,0,0-.833Z" transform="translate(-69.791 -77.446)" fill="#adce32"/>
      <path id="Trazado_717069" data-name="Trazado 717069" d="M433.794,265.17c1.707.167,2.74-1.249,2.69-2.881-.075-2.673-1.89-3.889-.525-6.845a31.448,31.448,0,0,1,2.99-4.272c.366-.541-.408-1.024-.833-.658a12.008,12.008,0,0,0-3.814,5.571,6.3,6.3,0,0,0-.242,2.365c.083.833,2.348,5.737-.25,5.571-.741-.05-.716,1.074,0,1.149Z" transform="translate(-75.191 -75.81)" fill="#adce32"/>
      <path id="Trazado_717070" data-name="Trazado 717070" d="M428.153,290.911l.067-.108a3.167,3.167,0,1,0-5.471,0l.067.108a3.131,3.131,0,0,0,5.338,0Z" transform="translate(-73.355 -81.532)" fill="#adce32"/>
      <path id="Trazado_717071" data-name="Trazado 717071" d="M422.627,280c2.448,0,2.457-3.814,0-3.814A1.908,1.908,0,0,0,422.627,280Z" transform="translate(-73.1 -79.977)" fill="#adce32"/>
      <path id="Trazado_717072" data-name="Trazado 717072" d="M427.749,274.138l.067.075a2.581,2.581,0,0,0,4.372-1.807,2.64,2.64,0,0,0-1.266-2.215,2.59,2.59,0,0,0-3.106.4l-.067.075a2.5,2.5,0,0,0,0,3.472Z" transform="translate(-74.151 -78.959)" fill="#adce32"/>
      <path id="Trazado_717073" data-name="Trazado 717073" d="M416.483,276.567a.958.958,0,0,0-.641-.733,1.141,1.141,0,0,0-1.382.466,1.108,1.108,0,1,0,2.024.267Z" transform="translate(-72.019 -79.917)" fill="#adce32"/>
      <path id="Trazado_717074" data-name="Trazado 717074" d="M429.792,284.277a1.132,1.132,0,1,0-1.035-1.128A1.132,1.132,0,0,0,429.792,284.277Z" transform="translate(-74.437 -80.915)" fill="#adce32"/>
      <path id="Trazado_717075" data-name="Trazado 717075" d="M433.174,292.938a1.474,1.474,0,1,0-1.474-1.474A1.474,1.474,0,0,0,433.174,292.938Z" transform="translate(-74.929 -82.181)" fill="#adce32"/>
      <path id="Trazado_717076" data-name="Trazado 717076" d="M355.942,313.418c-2.148,1.665-3.589,4.613-2.715,7.2.783,2.348,3.189,3.864,3.955,6.22,1.024,3.173-1.282,6.412-1.665,9.726a8.618,8.618,0,0,0,16.571,4.163c.833-2.2.833-4.763,2.19-6.662,2.665-3.805,8.868-2.973,12.257-6.162a6.82,6.82,0,0,0-.292-9.776c-2.731-2.282-6.82-2.007-9.909-3.78-2.123-1.216-3.606-3.331-5.6-4.7C366.709,306.84,359.331,310.762,355.942,313.418Z" transform="translate(-66.379 -84.927)" fill="#adce32"/>
      <path id="Trazado_717077" data-name="Trazado 717077" d="M371.806,324.183a3.964,3.964,0,0,0-1.4-1.724c-2.148-1.715-7.544-2.323-7.544-2.323-1.615-.216-3.014,1.4-3.123,3.023a7.045,7.045,0,0,0,1.665,4.463c.749,1.033,2.032,2.1,3.148,1.5a4.163,4.163,0,0,0,1.107-1.157,4.546,4.546,0,0,1,3.589-1.624,3.548,3.548,0,0,0,1.965-.158A1.665,1.665,0,0,0,371.806,324.183Z" transform="translate(-68.382 -86.943)" fill="#adce32"/>
      <path id="Trazado_717078" data-name="Trazado 717078" d="M367.2,337.059c-.716-1.665-4.638-1.182-4.638-1.182-.833,1.024-1.74,2.19-1.665,3.514.1,2.09,2.881,3.331,4.722,2.323A3.781,3.781,0,0,0,367.2,337.059Z" transform="translate(-68.795 -89.463)" fill="#adce32"/>
      <path id="Trazado_717079" data-name="Trazado 717079" d="M386.475,324.9a3.422,3.422,0,1,1-3.422-3.422A3.422,3.422,0,0,1,386.475,324.9Z" transform="translate(-70.894 -87.176)" fill="#adce32"/>
      <path id="Trazado_717080" data-name="Trazado 717080" d="M366.047,314.529c1.366-.583,2.681.217,3.98.55a1.141,1.141,0,0,0,1.274-1.665c-1.116-2.423-4.588-2.273-6.562-1.116-1.474.833-.183,2.848,1.307,2.223Z" transform="translate(-69.116 -85.604)" fill="#adce32"/>
      <path id="Trazado_717081" data-name="Trazado 717081" d="M375.175,318.38a1.374,1.374,0,1,0-1.267-1.37A1.374,1.374,0,0,0,375.175,318.38Z" transform="translate(-70.469 -86.271)" fill="#adce32"/>
      <path id="Trazado_717082" data-name="Trazado 717082" d="M379.351,321.191a1.391,1.391,0,1,0-1.391-1.391,1.391,1.391,0,0,0,1.391,1.391Z" transform="translate(-70.916 -86.713)" fill="#adce32"/>
      <path id="Trazado_717083" data-name="Trazado 717083" d="M359.517,348.094a8.888,8.888,0,0,0,6.079,2.04c1.715-.208,3.331-1.124,3.547-2.948a1.008,1.008,0,0,0-1.507-.833c-1.082.683-1.815,1.507-3.2,1.507a13.463,13.463,0,0,1-4.28-1.266c-.941-.366-1.366,1.016-.641,1.532Z" transform="translate(-68.428 -91.138)" fill="#adce32"/>
      <path id="Trazado_717084" data-name="Trazado 717084" d="M371.347,342.725a1.207,1.207,0,1,0-1.207-1.207,1.207,1.207,0,0,0,1.207,1.207Z" transform="translate(-70.048 -90.206)" fill="#adce32"/>
      <path id="Trazado_717085" data-name="Trazado 717085" d="M373.827,335.17a.949.949,0,1,0-.861-.945.949.949,0,0,0,.861.945Z" transform="translate(-70.403 -89.089)" fill="#adce32"/>
      <path id="Trazado_717086" data-name="Trazado 717086" d="M390.182,191.874a1.432,1.432,0,1,0-1.432-1.432A1.432,1.432,0,0,0,390.182,191.874Z" transform="translate(-67.744 -66.085)" fill="#adce32"/>
      <path id="Trazado_717087" data-name="Trazado 717087" d="M386.693,197.563c4.222,3.464,9.493,6.229,11.658,11.258,1.615,3.822,1.149,8.469,3.589,11.816,2.781,3.806,8.585,4.405,12.815,2.307a9.067,9.067,0,0,0,4.047-3.631c1.774-3.273.591-7.294-.7-10.825-3.656-9.926-8.652-17.628-18.761-21.825C391.772,183.574,376.2,188.953,386.693,197.563Z" transform="translate(-66.811 -65.441)" fill="#adce32"/>
      <path id="Trazado_717088" data-name="Trazado 717088" d="M400.888,197.379a3.631,3.631,0,1,1-1.063-2.576A3.639,3.639,0,0,1,400.888,197.379Z" transform="translate(-68.557 -66.824)" fill="#adce32"/>
      <path id="Trazado_717089" data-name="Trazado 717089" d="M410.521,201.635a1.807,1.807,0,1,1-.526-1.283A1.815,1.815,0,0,1,410.521,201.635Z" transform="translate(-70.779 -67.805)" fill="#adce32"/>
      <path id="Trazado_717090" data-name="Trazado 717090" d="M410.521,210.637a1.815,1.815,0,1,1-1.807-1.807A1.815,1.815,0,0,1,410.521,210.637Z" transform="translate(-70.778 -69.241)" fill="#adce32"/>
      <path id="Trazado_717091" data-name="Trazado 717091" d="M422.312,224.131a.891.891,0,1,1-.891-.891A.891.891,0,0,1,422.312,224.131Z" transform="translate(-73.06 -71.546)" fill="#adce32"/>
      <circle id="Elipse_5338" data-name="Elipse 5338" cx="0.891" cy="0.891" r="0.891" transform="translate(338.851 152.593)" fill="#adce32"/>
      <circle id="Elipse_5339" data-name="Elipse 5339" cx="3.864" cy="3.864" r="3.864" transform="translate(339.742 139.604)" fill="#adce32"/>
      <path id="Trazado_717092" data-name="Trazado 717092" d="M397.444,199.924a1.883,1.883,0,0,0,0-3.764A1.883,1.883,0,0,0,397.444,199.924Z" transform="translate(-68.894 -67.222)" fill="#adce32"/>
      <path id="Trazado_717093" data-name="Trazado 717093" d="M414.986,216.061a1.516,1.516,0,1,0-1.516-1.516A1.516,1.516,0,0,0,414.986,216.061Z" transform="translate(-71.879 -69.913)" fill="#adce32"/>
      <path id="Trazado_717094" data-name="Trazado 717094" d="M405.554,193.658a1.474,1.474,0,1,0-1.474-1.474A1.474,1.474,0,0,0,405.554,193.658Z" transform="translate(-70.308 -66.356)" fill="#adce32"/>
      <path id="Trazado_717095" data-name="Trazado 717095" d="M398.062,190.128a.558.558,0,1,0-.49-.554.558.558,0,0,0,.49.554Z" transform="translate(-69.22 -66.092)" fill="#adce32"/>
      <path id="Trazado_717096" data-name="Trazado 717096" d="M401.713,208.743a1.541,1.541,0,1,0-1.427-1.536A1.541,1.541,0,0,0,401.713,208.743Z" transform="translate(-69.674 -68.74)" fill="#adce32"/>
      <path id="Trazado_717097" data-name="Trazado 717097" d="M406.281,216.885h.141a1.241,1.241,0,0,0,0-2.373h-.141a1.266,1.266,0,1,0,0,2.448Z" transform="translate(-70.411 -70.145)" fill="#adce32"/>
      <circle id="Elipse_5340" data-name="Elipse 5340" cx="16.304" cy="16.304" r="16.304" transform="translate(263.89 170.761) rotate(-22.79)" fill="#adce32"/>
      <path id="Trazado_717098" data-name="Trazado 717098" d="M352.747,238.683c.575-1.274.308-2.756.375-4.164s.508-2.914-.133-4.164a.766.766,0,0,0-1.191-.15c-.891,1.124-.716,2.64-.724,4.03s-.225,3.173.525,4.422a.674.674,0,0,0,1.149,0Z" transform="translate(-67.886 -72.59)" fill="#adce32"/>
      <path id="Trazado_717099" data-name="Trazado 717099" d="M360.349,239.919c1.3-1.765,3.023-4.022,2.981-6.312a.616.616,0,0,0-1.049-.433,11.177,11.177,0,0,0-1.665,2.781,25.885,25.885,0,0,1-1.84,3.023c-.7.991.908,1.89,1.607.941Z" transform="translate(-68.627 -73.077)" fill="#adce32"/>
      <path id="Trazado_717100" data-name="Trazado 717100" d="M365.954,246.388c1.9-.916,4.205-1.865,5.4-3.681a.833.833,0,0,0-.874-1.149c-2.015.541-3.722,2.107-5.537,3.1C363.789,245.281,364.8,246.938,365.954,246.388Z" transform="translate(-69.173 -74.451)" fill="#adce32"/>
      <path id="Trazado_717101" data-name="Trazado 717101" d="M369.324,255.005c2.107,0,4.313.475,6.4.217.666-.083,1.207-1.116.4-1.466-2.1-.916-4.58-.691-6.8-.466C368.25,253.39,368.2,255.014,369.324,255.005Z" transform="translate(-69.578 -76.303)" fill="#adce32"/>
      <path id="Trazado_717102" data-name="Trazado 717102" d="M367.416,264.434a36.517,36.517,0,0,0,6.1,3.664c.666.275,1.141-.708.674-1.166a36.833,36.833,0,0,0-5.829-4.164c-1.041-.674-2,.983-.966,1.665Z" transform="translate(-69.435 -77.804)" fill="#adce32"/>
      <path id="Trazado_717103" data-name="Trazado 717103" d="M363.158,268.419a12.974,12.974,0,0,0,2.748,5.179.683.683,0,0,0,1.132-.658,42.358,42.358,0,0,0-2.082-5c-.433-1.091-2.207-.65-1.8.5Z" transform="translate(-69.173 -78.549)" fill="#adce32"/>
      <path id="Trazado_717104" data-name="Trazado 717104" d="M356.407,271.91l1.024,3.606a11.549,11.549,0,0,0,1.174,3.231.708.708,0,0,0,1.316-.358,11.207,11.207,0,0,0-.833-3.331c-.391-1.182-.774-2.373-1.166-3.564a.833.833,0,0,0-1.532.425Z" transform="translate(-68.434 -79.145)" fill="#adce32"/>
      <path id="Trazado_717105" data-name="Trazado 717105" d="M349.814,280.684c.05-2.5.4-5.263-.175-7.744a.641.641,0,0,0-1.224,0c-.575,2.5-.225,5.213-.175,7.744a.833.833,0,0,0,1.574,0Z" transform="translate(-67.571 -79.361)" fill="#adce32"/>
      <path id="Trazado_717106" data-name="Trazado 717106" d="M341.047,275.215c.683-1.99,1.832-4.23,1.949-6.345.042-.758-.983-.933-1.349-.366-1.149,1.765-1.549,4.28-2.165,6.279C339.174,275.781,340.706,276.189,341.047,275.215Z" transform="translate(-66.513 -78.679)" fill="#adce32"/>
      <path id="Trazado_717107" data-name="Trazado 717107" d="M328.653,265.3a38.026,38.026,0,0,0,5.829-1.266c.791-.283.733-1.6-.208-1.549a38.75,38.75,0,0,0-6.062,1.091c-1.124.25-.641,1.924.475,1.724Z" transform="translate(-64.996 -77.798)" fill="#adce32"/>
      <path id="Trazado_717108" data-name="Trazado 717108" d="M327.891,253.508c1.749.7,3.839,1.94,5.754,1.832a.6.6,0,0,0,.425-1.008c-1.466-1.374-3.889-1.765-5.746-2.382C327.316,251.617,326.95,253.133,327.891,253.508Z" transform="translate(-64.996 -76.108)" fill="#adce32"/>
      <path id="Trazado_717109" data-name="Trazado 717109" d="M331.441,241.718c1.449,1.949,3.139,4.33,5.4,5.388.591.275,1.441-.341.991-1a19.986,19.986,0,0,0-2.448-2.656,33.763,33.763,0,0,1-2.5-2.84c-.633-.833-2.048.275-1.432,1.107Z" transform="translate(-65.452 -74.245)" fill="#adce32"/>
      <path id="Trazado_717110" data-name="Trazado 717110" d="M338.347,234.752a54.181,54.181,0,0,0,3.855,5.829c.558.7,1.441-.192,1.149-.883a53.026,53.026,0,0,0-3.239-5.97,1.024,1.024,0,0,0-1.765,1.033Z" transform="translate(-66.303 -73.12)" fill="#adce32"/>
      <path id="Trazado_717111" data-name="Trazado 717111" d="M337.848,255.206a21.055,21.055,0,0,0,3.5.733.933.933,0,0,0,.475-1.732,20.924,20.924,0,0,0-3.381-1.132,1.107,1.107,0,0,0-.591,2.132Z" transform="translate(-66.173 -76.293)" fill="#adce32"/>
      <path id="Trazado_717112" data-name="Trazado 717112" d="M340.419,263.986c1.324-.6,3.006-1.5,3.514-2.939.192-.558-.441-1.257-1.024-1.016a6.744,6.744,0,0,0-1.732,1.207,10.127,10.127,0,0,1-1.724,1.107c-1.1.575-.133,2.14.966,1.665Z" transform="translate(-66.394 -77.392)" fill="#adce32"/>
      <path id="Trazado_717113" data-name="Trazado 717113" d="M348.988,265.69l-.058,2.5c0,.833,0,1.532.733,2.007a.832.832,0,0,0,.833,0c.749-.475.766-1.207.741-2.007s-.042-1.665-.058-2.5a1.091,1.091,0,0,0-2.173,0Z" transform="translate(-67.646 -78.136)" fill="#adce32"/>
      <path id="Trazado_717114" data-name="Trazado 717114" d="M359.237,266.351a9.486,9.486,0,0,0,2.315,2.3c.666.4,1.232-.358.966-.966a9.823,9.823,0,0,0-2.007-2.606.9.9,0,1,0-1.274,1.274Z" transform="translate(-68.723 -78.163)" fill="#adce32"/>
      <path id="Trazado_717115" data-name="Trazado 717115" d="M364.082,260.689c1.107,0,2.107.541,3.214.558a.633.633,0,0,0,.55-.949c-.783-1.257-2.4-1.491-3.764-1.449a.924.924,0,0,0,0,1.84Z" transform="translate(-69.154 -77.219)" fill="#adce32"/>
      <path id="Trazado_717116" data-name="Trazado 717116" d="M362.349,252.823a15.671,15.671,0,0,0,1.607-4.047c.083-.533-.6-1.149-1.041-.608a15.18,15.18,0,0,0-1.94,3.847c-.4.924.941,1.749,1.374.833Z" transform="translate(-68.968 -75.47)" fill="#adce32"/>
      <path id="Trazado_717117" data-name="Trazado 717117" d="M356.421,245.137a14.806,14.806,0,0,0-1.374-3.947.833.833,0,0,0-1.507.408,15.322,15.322,0,0,0,1.008,4.055.974.974,0,0,0,1.874-.516Z" transform="translate(-68.142 -74.335)" fill="#adce32"/>
      <path id="Trazado_717118" data-name="Trazado 717118" d="M343.486,245.017c.833,1.1,1.84,2.5,3.331,2.74.508.075,1.107-.316.908-.9-.483-1.391-1.815-2.215-2.8-3.256a1,1,0,1,0-1.416,1.416Z" transform="translate(-66.895 -74.733)" fill="#adce32"/>
      <path id="Trazado_717119" data-name="Trazado 717119" d="M349.046,255.942a10.9,10.9,0,0,1-.258,1.665,2.082,2.082,0,0,0,.1,1.582.625.625,0,0,0,.691.283c1.316-.4,1.357-2.373,1.374-3.5a.958.958,0,0,0-1.907,0Z" transform="translate(-67.619 -76.614)" fill="#adce32"/>
      <path id="Trazado_717120" data-name="Trazado 717120" d="M354.317,256.463a13.66,13.66,0,0,0,1.324,1.907c.441.55,1.316,1.241,2.057.774s.242-1.565-.2-2.107a13.749,13.749,0,0,1-1.232-1.715,1.132,1.132,0,0,0-1.949,1.141Z" transform="translate(-68.17 -76.571)" fill="#adce32"/>
      <path id="Trazado_717121" data-name="Trazado 717121" d="M343.652,251.552a1.032,1.032,0,0,0,0-1.049,1.107,1.107,0,1,0,0,1.049Z" transform="translate(-66.815 -75.797)" fill="#adce32"/>
      <path id="Trazado_717122" data-name="Trazado 717122" d="M347.187,252.261a1.1,1.1,0,0,0-.092-1.282,1.142,1.142,0,1,0,.092,1.282Z" transform="translate(-67.204 -75.893)" fill="#adce32"/>
      <path id="Trazado_717123" data-name="Trazado 717123" d="M348.815,244.921a1.807,1.807,0,0,0,.833.208.833.833,0,0,0,.833-.833,1.916,1.916,0,0,0-.2-.833,1.066,1.066,0,1,0-1.457,1.457Z" transform="translate(-67.58 -74.684)" fill="#adce32"/>
      <path id="Trazado_717124" data-name="Trazado 717124" d="M355.453,252.56l.067-.075a1.191,1.191,0,0,0,0-1.665l-.067-.075a1.274,1.274,0,1,0,0,1.8Z" transform="translate(-68.127 -75.868)" fill="#adce32"/>
      <path id="Trazado_717125" data-name="Trazado 717125" d="M360.734,245.35a2.28,2.28,0,0,0,.042-.233,1.224,1.224,0,0,0-1.474-1.474h-.233a1.357,1.357,0,1,0,1.665,1.665Z" transform="translate(-68.662 -74.789)" fill="#adce32"/>
      <path id="Trazado_717126" data-name="Trazado 717126" d="M344.5,267.707a.958.958,0,1,0-.868-.953.958.958,0,0,0,.868.953Z" transform="translate(-67.071 -78.331)" fill="#adce32"/>
      <path id="Trazado_717127" data-name="Trazado 717127" d="M355.3,268.89a1.124,1.124,0,1,0-1.028-1.12,1.124,1.124,0,0,0,1.028,1.12Z" transform="translate(-68.265 -78.465)" fill="#adce32"/>
      <path id="Trazado_717128" data-name="Trazado 717128" d="M320.911,213.1a1.746,1.746,0,0,0,0-3.489A1.746,1.746,0,0,0,320.911,213.1Z" transform="translate(-64.231 -69.366)" fill="#adce32"/>
      <path id="Trazado_717129" data-name="Trazado 717129" d="M339.832,197.6A1.6,1.6,0,1,0,338.349,196a1.6,1.6,0,0,0,1.483,1.595Z" transform="translate(-66.414 -66.945)" fill="#adce32"/>
      <path id="Trazado_717130" data-name="Trazado 717130" d="M353.241,212.023a2.581,2.581,0,1,0-2.581-2.581A2.615,2.615,0,0,0,353.241,212.023Z" transform="translate(-67.708 -68.922)" fill="#adce32"/>
      <path id="Trazado_717131" data-name="Trazado 717131" d="M367.89,182.375v-.142a1.665,1.665,0,1,0-3.139,0v.142a1.607,1.607,0,0,0,3.073,0Z" transform="translate(-69.38 -64.649)" fill="#adce32"/>
      <path id="Trazado_717132" data-name="Trazado 717132" d="M375.1,212.721a1.665,1.665,0,1,0-1.665-1.665A1.715,1.715,0,0,0,375.1,212.721Z" transform="translate(-70.375 -69.332)" fill="#adce32"/>
      <path id="Trazado_717133" data-name="Trazado 717133" d="M388.467,231.39a1.357,1.357,0,0,0,1.016-.933,1.5,1.5,0,1,0-1.016.933Z" transform="translate(-67.377 -72.356)" fill="#adce32"/>
      <path id="Trazado_717134" data-name="Trazado 717134" d="M313.626,331a1.416,1.416,0,1,0-1.416-1.416A1.416,1.416,0,0,0,313.626,331Z" transform="translate(-63.459 -88.268)" fill="#adce32"/>
      <path id="Trazado_717135" data-name="Trazado 717135" d="M311.544,359.948a1.324,1.324,0,1,0-1.324-1.324,1.341,1.341,0,0,0,1.324,1.324Z" transform="translate(-63.241 -92.913)" fill="#adce32"/>
      <path id="Trazado_717136" data-name="Trazado 717136" d="M331.75,369.512l.067-.225a2.2,2.2,0,0,0-2.673-2.681l-.233.067a2.307,2.307,0,1,0,2.84,2.84Z" transform="translate(-65.08 -94.371)" fill="#adce32"/>
      <path id="Trazado_717137" data-name="Trazado 717137" d="M414.029,376.618l.133-.05a1.665,1.665,0,0,0,1.2-1.582,1.723,1.723,0,0,0-1.2-1.582l-.133-.05a1.665,1.665,0,1,0,0,3.264Z" transform="translate(-71.639 -95.462)" fill="#adce32"/>
      <path id="Trazado_717138" data-name="Trazado 717138" d="M442.1,341.947l.225-.142a2.015,2.015,0,1,0-2.756-2.756l-.142.225a1.965,1.965,0,0,0,2.673,2.673Z" transform="translate(-76.181 -89.834)" fill="#adce32"/>
      <path id="Trazado_717139" data-name="Trazado 717139" d="M293.764,226.278a1.174,1.174,0,1,0-1.174-1.174A1.174,1.174,0,0,0,293.764,226.278Z" transform="translate(-61.253 -71.654)" fill="#adce32"/>
      <path id="Trazado_717140" data-name="Trazado 717140" d="M297.775,238.107h.15a2.107,2.107,0,0,0,1.374-.575,1.973,1.973,0,0,0,.575-1.374,2,2,0,0,0-1.948-1.949h-.15a1.965,1.965,0,0,0-1.965,1.965c.05.966.874,2.09,1.965,1.965Z" transform="translate(-61.551 -73.285)" fill="#adce32"/>
      <path id="Trazado_717141" data-name="Trazado 717141" d="M253.547,297.235a1.157,1.157,0,1,0-1.157-1.157A1.157,1.157,0,0,0,253.547,297.235Z" transform="translate(-56.694 -82.971)" fill="#adce32"/>
      <path id="Trazado_717142" data-name="Trazado 717142" d="M315.731,304.721a1.341,1.341,0,1,0-1.341-1.341,1.341,1.341,0,0,0,1.341,1.341Z" transform="translate(-63.712 -84.104)" fill="#adce32"/>
      <path id="Trazado_717143" data-name="Trazado 717143" d="M336.63,296.776a1.749,1.749,0,0,0-.65-1.89,1.661,1.661,0,1,0,.683,1.89Z" transform="translate(-65.808 -82.9)" fill="#adce32"/>
      <path id="Trazado_717144" data-name="Trazado 717144" d="M408.738,307.266l.133-.058a1.516,1.516,0,0,0,1.083-1.416,1.566,1.566,0,0,0-1.083-1.424l-.133-.05a1.532,1.532,0,1,0,0,2.948Z" transform="translate(-70.761 -84.455)" fill="#adce32"/>
      <path id="Trazado_717145" data-name="Trazado 717145" d="M439,321.214l.117-.241a1.407,1.407,0,0,0-1.907-1.907l-.242.117A1.482,1.482,0,1,0,439,321.214Z" transform="translate(-75.689 -86.789)" fill="#adce32"/>
      <path id="Trazado_717146" data-name="Trazado 717146" d="M447.551,211.252l-.092-.225a1.757,1.757,0,0,0-1.182-1.182,1.665,1.665,0,0,0-2.082,2.082,1.765,1.765,0,0,0,1.182,1.191l.225.083a1.591,1.591,0,0,0,1.949-1.949Z" transform="translate(-77.007 -69.392)" fill="#adce32"/>
      <path id="Trazado_717147" data-name="Trazado 717147" d="M450.386,231.163A1.166,1.166,0,1,0,449.318,230,1.166,1.166,0,0,0,450.386,231.163Z" transform="translate(-77.876 -72.436)" fill="#adce32"/>
      <path id="Trazado_717148" data-name="Trazado 717148" d="M455.778,244.457a2.048,2.048,0,1,0-2.048-2.048A2.048,2.048,0,0,0,455.778,244.457Z" transform="translate(-78.615 -74.265)" fill="#adce32"/>
      <path id="Trazado_717149" data-name="Trazado 717149" d="M386.422,278.3a1.083,1.083,0,1,0-.987-1.078A1.083,1.083,0,0,0,386.422,278.3Z" transform="translate(-67.189 -79.978)" fill="#adce32"/>
      <path id="Trazado_717150" data-name="Trazado 717150" d="M390.9,293.551a1.366,1.366,0,1,0-1.366-1.366,1.366,1.366,0,0,0,1.366,1.366Z" transform="translate(-67.874 -82.315)" fill="#adce32"/>
      <path id="Trazado_717151" data-name="Trazado 717151" d="M382.332,376.073c2.964,0,2.973-4.613,0-4.613S379.359,376.073,382.332,376.073Z" transform="translate(-71.072 -95.155)" fill="#adce32"/>
      <path id="Trazado_717152" data-name="Trazado 717152" d="M407.568,391.255v-.133a1.74,1.74,0,0,0-3.331,0v.133a1.774,1.774,0,1,0,3.422,0Z" transform="translate(-70.324 -97.579)" fill="#adce32"/>
      <path id="Trazado_717153" data-name="Trazado 717153" d="M351.7,302.408a1.474,1.474,0,1,0-1.474-1.474A1.474,1.474,0,0,0,351.7,302.408Z" transform="translate(-67.764 -83.691)" fill="#adce32"/>
      <path id="Trazado_717154" data-name="Trazado 717154" d="M324.424,279.778a1.625,1.625,0,0,0,0-3.248A1.625,1.625,0,0,0,324.424,279.778Z" transform="translate(-64.652 -80.034)" fill="#adce32"/>
      <path id="Trazado_717155" data-name="Trazado 717155" d="M338.533,215.985a.983.983,0,1,0-.983-.983A.983.983,0,0,0,338.533,215.985Z" transform="translate(-66.371 -70.075)" fill="#adce32"/>
      <path id="Trazado_717156" data-name="Trazado 717156" d="M331.191,180.353l-.075-.1a1.757,1.757,0,0,0-2.989,0l-.067.1a1.815,1.815,0,1,0,3.131,0Z" transform="translate(-65.193 -64.554)" fill="#adce32"/>
      <path id="Trazado_717157" data-name="Trazado 717157" d="M356.707,172.675c-.6-.616-.666-.649-.208-.1a1.4,1.4,0,0,0,.608.391c.125.05.716.325.067,0a1.665,1.665,0,0,0,2.273-.591,2.215,2.215,0,0,0,.208-1.665,1.948,1.948,0,0,0-1.824-1.391,1.665,1.665,0,0,0-.7.092,1.79,1.79,0,0,0-1.274,1.474,1.824,1.824,0,0,0,.833,1.765Z" transform="translate(-68.355 -62.942)" fill="#adce32"/>
      <ellipse id="Elipse_5341" data-name="Elipse 5341" cx="66.925" cy="13.606" rx="66.925" ry="13.606" transform="translate(30.769 323.587)" fill="#adce32"/>
      <path id="Trazado_717158" data-name="Trazado 717158" d="M220.521,176.529c-7.136-1.341-26.364-6.1-28.537-13.856-3.048-10.933-1.349-22.408-3.88-33.475s-9.734-23.915-19.519-29.678c0,0-7.936,21.284-6.4,28.179q3.564,16.013,7.128,32.018c1.582,7.1,3.414,14.656,8.727,19.635,3.064,2.873,7.028,4.6,11.017,5.954a78.833,78.833,0,0,0,31.643,3.914,6.245,6.245,0,0,0,3.231-.9C227.416,185.738,220,180.826,220.521,176.529Z" transform="translate(-45.045 -52.267)" fill="#dee9f0"/>
      <path id="Trazado_717159" data-name="Trazado 717159" d="M104.248,305.4c.733,18.045,1.174,50.146,4.6,79.066.2,1.665,9.992,1.74,13.956,1.615,8.985-55.991,9.793-79.107,12.74-127.979,2.6,38.046,2.407,77.1,7.736,127.321.383,3.572,14.806-.883,14.989-3.372,1.407-19.943,4.405-43.85,4.93-52.044,1.757-27.363,2.881-70.022,2.34-103.905l-34.507.133c-5.471,0-28.628-2.406-29.811.833-2.865,7.8-.733,25.939-.275,29.977C103.24,277.232,103.748,293.137,104.248,305.4Z" transform="translate(-38.605 -70.058)" fill="#dee9f0"/>
      <path id="Trazado_717160" data-name="Trazado 717160" d="M107.959,424.484c0,.566-1.182,7.869-.933,8.385.833,1.665,30.052,12.807,35.24,5.7.833-1.182.833-6.8-4.33-9.4-3.131-1.582-6.362-2.956-9.543-4.43a3.772,3.772,0,0,1-1.8-1.324,3.813,3.813,0,0,1-.35-1.932c0-6.029,1.974-23.682,1.965-29.7-6.179-.4-15.73-.641-21.9-.466C106.6,401.392,108.125,415.19,107.959,424.484Z" transform="translate(-39.708 -97.807)" fill="#ffa686"/>
      <path id="Trazado_717161" data-name="Trazado 717161" d="M150.452,420.967c0,.833-1.174,9.11-.791,9.843.65,1.249,2.673,1.857,4.064,2.032,11.533,1.441,29.661,1.666,32.151-.341,1.549-3.448-1.924-7.877-5.088-9.343-3.431-1.59-12.541-2.165-13.049-3.023-.325-.55,2.04-29.686,1.665-29.669-6.279.283-14.656-.266-20.934,0C148.853,398.167,150.427,418.719,150.452,420.967Z" transform="translate(-44.228 -97.663)" fill="#ffa686"/>
      <path id="Trazado_717162" data-name="Trazado 717162" d="M72.453,355.978H35.131A3.481,3.481,0,0,1,31.65,352.5V294.491A12.491,12.491,0,0,1,44.141,282h19.3a12.491,12.491,0,0,1,12.491,12.491v57.973a3.481,3.481,0,0,1-3.481,3.514Z" transform="translate(-31.65 -80.418)" fill="#adce32"/>
      <rect id="Rectángulo_361760" data-name="Rectángulo 361760" width="18.086" height="10.775" transform="translate(13.098 190.299)" fill="#adce32"/>
      <path id="Trazado_717163" data-name="Trazado 717163" d="M49.748,272.192c.142-2.248.233-4.5.533-6.737.45-3.281,1.374-4.888,5-4.7,2.69.133,5.879-.466,6.445,2.9A60.268,60.268,0,0,1,62,271.209c.083,2.282,3.656,2.282,3.547,0-.167-3.447.525-8.177-1.5-11.233s-6.1-2.548-9.21-2.5c-8.727.05-7.794,8.627-6.537,14.939.167.833,1.366.575,1.407-.191Z" transform="translate(-34.301 -76.925)" fill="#adce32"/>
      <rect id="Rectángulo_361761" data-name="Rectángulo 361761" width="20.526" height="36.681" transform="translate(11.883 220.162)" fill="#ffa686"/>
      <path id="Trazado_717164" data-name="Trazado 717164" d="M67.224,267.889c7.236-6.562,17.487-8.011,26.863-6.079,6.953,1.432,10.434,6.712,16.3,10.1,5,2.9,11.858,3.714,16.762.15,4.363-3.156,6.512-8.76,10.176-12.624,2.59-2.74,6.47-6.254,10.176-7.295,2.84-.791,6.279.133,9.11.6,4.713.766,11.749,3.006,16.3.616,4.7-2.5,5.679-10.667,7.453-15.114,1.224-3.073,2.5-5.629,5.887-6.487a32.042,32.042,0,0,1,7.827-.616c5.171,0,11.05.466,15.68-2.29,5.879-3.5,6.587-10.825,6.329-17.012-.108-2.581-4.105-2.606-4.039,0,.158,6.012-.558,12.665-7.261,14.389-4.8,1.232-9.951.375-14.839.708-5.055.35-9.268,1.507-11.908,6.145A50.8,50.8,0,0,0,174.518,242c-.766,2.24-1.665,6.662-4.039,7.728s-6.445-.1-8.793-.458c-3.056-.475-6.1-1.074-9.16-1.4-6.528-.691-11.458,2.332-16.271,6.662-4.313,3.889-6.512,9.435-10.65,13.323-5.637,5.321-13.182.425-17.87-3.606a29.152,29.152,0,0,0-19.269-7.678c-8.76-.425-17.737,2.165-23.89,8.619a1.882,1.882,0,0,0,2.656,2.665Z" transform="translate(-37.072 -69.127)" fill="#adce32"/>
      <path id="Trazado_717165" data-name="Trazado 717165" d="M35.146,365.244c5.787.491,11.658.341,17.487.433s11.658.358,17.487-.133a.966.966,0,1,0,0-1.932,172.506,172.506,0,0,0-17.487-.133c-5.829.1-11.658-.058-17.487.433a.666.666,0,0,0,0,1.332Z" transform="translate(-32.123 -93.874)" fill="#adce32"/>
      <path id="Trazado_717166" data-name="Trazado 717166" d="M36.344,360.62c5.354-.6,11.258.158,16.488-1.066a.7.7,0,0,0,0-1.341C47.6,357,41.7,357.747,36.344,357.148c-2.232-.241-2.232,3.722,0,3.472Z" transform="translate(-32.155 -92.881)" fill="#adce32"/>
      <path id="Trazado_717167" data-name="Trazado 717167" d="M36.409,352.6c1.307.225,2.6.341,3.914.45s1.3-2.115,0-2.007-2.606.225-3.914.45a.583.583,0,0,0,0,1.108Z" transform="translate(-32.379 -91.919)" fill="#adce32"/>
      <path id="Trazado_717168" data-name="Trazado 717168" d="M36.445,345.57a1.274,1.274,0,1,0-1.171-1.27,1.274,1.274,0,0,0,1.171,1.27Z" transform="translate(-32.256 -90.639)" fill="#adce32"/>
      <path id="Trazado_717169" data-name="Trazado 717169" d="M36.343,336.844a1.733,1.733,0,0,0,0-3.464A1.733,1.733,0,0,0,36.343,336.844Z" transform="translate(-32.155 -89.094)" fill="#adce32"/>
      <path id="Trazado_717170" data-name="Trazado 717170" d="M36.477,325.157a1.107,1.107,0,1,0-1.012-1.1,1.107,1.107,0,0,0,1.012,1.1Z" transform="translate(-32.288 -87.44)" fill="#adce32"/>
      <path id="Trazado_717171" data-name="Trazado 717171" d="M64.8,288.888a7,7,0,0,1,5.829,1.016c1.79,1.208,2.232,2.948,3.331,4.622a.908.908,0,0,0,1.665-.217c.666-2.573-1.524-5.113-3.506-6.47a8.8,8.8,0,0,0-7.894-1.133,1.133,1.133,0,0,0,.6,2.182Z" transform="translate(-36.968 -81.55)" fill="#adce32"/>
      <path id="Trazado_717172" data-name="Trazado 717172" d="M75.392,303.4a2.44,2.44,0,0,0,.491,1,1.407,1.407,0,0,0,1.982,0,2.5,2.5,0,0,0,.525-1.008,1.574,1.574,0,1,0-3.031,0Z" transform="translate(-38.952 -83.996)" fill="#adce32"/>
      <path id="Trazado_717173" data-name="Trazado 717173" d="M78.406,313.282a1.116,1.116,0,1,0-1.116-1.116A1.116,1.116,0,0,0,78.406,313.282Z" transform="translate(-39.285 -85.543)" fill="#adce32"/>
      <path id="Trazado_717174" data-name="Trazado 717174" d="M93.239,100.2c-3.331.933-1.865,7.969-2.5,11.341-5.829,29.353,10.067,64.035,8.81,93.946-.083,2.1,47.123,3.706,64.318-.933-.891-31.185-1.232-44.083-.516-69.589.266-9.6-5.829-35.265-6.845-35.948s-7.678-2.04-8.86-1.9c-9.368,1.149-19.843-.941-31.768-.491A90.015,90.015,0,0,0,93.239,100.2Z" transform="translate(-41.32 -51.773)" fill="#adce32"/>
      <path id="Trazado_717175" data-name="Trazado 717175" d="M140.52,110.99a1040.893,1040.893,0,0,1,1.116,124.223c0,.625.308,3.189.733,3.656s1.024-3.156,1.058-3.781c2.248-42.326,2.64-81.88-1.557-124.073-.083-.833-1.407-.833-1.349,0Z" transform="translate(-43.965 -53.247)" fill="#adce32"/>
      <path id="Trazado_717176" data-name="Trazado 717176" d="M101.114,227.707c30.585,5.1,43.809,2.09,64.693-.766.683-.092.583-1.84-.075-1.732-17.3,2.848-43.176,4.63-64.277.833-.258-.042-.4.316-.483.741C100.839,227.474,101.114,227.707,101.114,227.707Z" transform="translate(-38.734 -71.844)" fill="#adce32"/>
      <path id="Trazado_717177" data-name="Trazado 717177" d="M168.815,99.031c5.438,13.323,6.836,27.479,7.594,41.635.05,1.041.1-.325.167-1.366.833-13.881-2.082-31.593-5.371-38.929-.325-.733-2.7-2.065-2.39-1.316Z" transform="translate(-47.093 -52.153)" fill="#adce32"/>
      <path id="Trazado_717178" data-name="Trazado 717178" d="M105.662,193.078c5.188-.167,10.617.833,15.738.333a1.224,1.224,0,0,0,.325-2.39c-4.93-1.457-11.008-.774-16.063-.4C104.105,190.738,104.063,193.119,105.662,193.078Z" transform="translate(-39.736 -66.262)" fill="#adce32"/>
      <path id="Trazado_717179" data-name="Trazado 717179" d="M106.357,202.162c2.1,0,4.164,0,6.287.15,1.9.142,3.764.583,5.621.042a.991.991,0,0,0,.233-1.79c-3.1-2.007-8.668-1.357-12.141-.908-1.557.2-1.665,2.5,0,2.5Z" transform="translate(-39.86 -67.705)" fill="#adce32"/>
      <path id="Trazado_717180" data-name="Trazado 717180" d="M107.364,209.916l3.331.733a5.178,5.178,0,0,0,3.131.158,1.108,1.108,0,0,0,.483-1.824,4.641,4.641,0,0,0-2.848-1.124l-3.331-.625c-1.74-.325-2.5,2.3-.741,2.681Z" transform="translate(-44.153 -68.982)" fill="#adce32"/>
      <path id="Trazado_717181" data-name="Trazado 717181" d="M109.452,216.265c1.74.241,3.572.7,5.321.316a1.116,1.116,0,0,0,.258-2.023c-1.59-.833-3.464-.833-5.213-1-1.532-.175-1.907,2.5-.366,2.706Z" transform="translate(-44.501 -69.996)" fill="#adce32"/>
      <path id="Trazado_717182" data-name="Trazado 717182" d="M104.949,184c1.982.067,4.213.475,6.079-.291a.991.991,0,0,0,0-1.9c-1.874-.766-4.1-.358-6.079-.291a1.249,1.249,0,1,0,0,2.5Z" transform="translate(-43.703 -64.864)" fill="#adce32"/>
      <path id="Trazado_717183" data-name="Trazado 717183" d="M103.809,103.01c5.4,4.788,12.882,10.7,20.26,11.566.833.1,1.066-1.157.425-1.557-3.039-1.849-6.6-2.773-9.759-4.455a59.474,59.474,0,0,1-9.851-6.662c-.741-.616-1.824.416-1.074,1.074Z" transform="translate(-39.596 -52.634)" fill="#adce32"/>
      <path id="Trazado_717184" data-name="Trazado 717184" d="M106.655,113.019c3.256,2.407,7.319,5.1,11.458,5.429.833.067,1.024-1.074.391-1.449a56.35,56.35,0,0,0-5.571-2.5,38.488,38.488,0,0,1-5.288-3.148C106.6,110.621,105.655,112.311,106.655,113.019Z" transform="translate(-39.995 -54.217)" fill="#adce32"/>
      <path id="Trazado_717185" data-name="Trazado 717185" d="M110.222,123.254c1.882.566,4.164,1.665,6.145,1.466a.924.924,0,0,0,.466-1.665c-1.59-1.216-4.089-1.516-5.987-2.048a1.191,1.191,0,0,0-.625,2.29Z" transform="translate(-44.663 -54.025)" fill="#adce32"/>
      <path id="Trazado_717186" data-name="Trazado 717186" d="M150.769,116.075c1.874-.341,4.671-.341,6.02-1.865a.766.766,0,0,0-.15-1.2c-2.023-.833-4.488.3-6.487.833C148.687,114.226,149.32,116.341,150.769,116.075Z" transform="translate(-44.905 -54.475)" fill="#adce32"/>
      <path id="Trazado_717187" data-name="Trazado 717187" d="M149.5,125a12.159,12.159,0,0,0,2.132.2,3.331,3.331,0,0,0,2.123-.266,1.024,1.024,0,0,0,0-1.74,3.331,3.331,0,0,0-2.123-.258,10.75,10.75,0,0,0-2.132.2.974.974,0,0,0,0,1.865Z" transform="translate(-44.888 -54.303)" fill="#adce32"/>
      <path id="Trazado_717188" data-name="Trazado 717188" d="M150.4,134.368h2.29c.833,0,1.541,0,2-.766a.916.916,0,0,0,0-.924c-.458-.749-1.207-.766-2-.758H150.4a1.216,1.216,0,1,0,0,2.432Z" transform="translate(-44.926 -56.985)" fill="#adce32"/>
      <path id="Trazado_717189" data-name="Trazado 717189" d="M152.13,142.027a15.175,15.175,0,0,0,2.207-.425.833.833,0,0,0,0-1.524,16.358,16.358,0,0,0-2.207-.416,1.224,1.224,0,1,0,0,2.365Z" transform="translate(-45.11 -58.213)" fill="#adce32"/>
      <path id="Trazado_717190" data-name="Trazado 717190" d="M151.794,220.862c1.232.083,2.5.175,3.7.216a5.674,5.674,0,0,0,3.231-.35,1.041,1.041,0,0,0,0-1.79,5.813,5.813,0,0,0-3.231-.35c-1.133.033-2.5.142-3.7.225a1.024,1.024,0,0,0,0,2.048Z" transform="translate(-45.055 -70.792)" fill="#adce32"/>
      <path id="Trazado_717191" data-name="Trazado 717191" d="M151.129,212.587l2.69.092a4.154,4.154,0,0,0,2.5-.308,1.091,1.091,0,0,0,0-1.857,4.039,4.039,0,0,0-2.5-.3l-2.69.083a1.149,1.149,0,0,0,0,2.29Z" transform="translate(-45.007 -69.454)" fill="#adce32"/>
      <path id="Trazado_717192" data-name="Trazado 717192" d="M152.516,202.92a5.638,5.638,0,0,0,2.8-.458.933.933,0,0,0,0-1.6,5.638,5.638,0,0,0-2.8-.458,1.257,1.257,0,0,0,0,2.5Z" transform="translate(-45.2 -67.899)" fill="#adce32"/>
      <path id="Trazado_717193" data-name="Trazado 717193" d="M113.979,85.613c.691,2.073-3.156,2.232-5.979,3.006,2.8,4,9.06,7.636,13.024,9.027a40.328,40.328,0,0,0,14.522,2.065c3.639-.15,6.662-.724,9.543-2.923s5.429-5,5.6-8.668c-2.673,0-6.22,0-6.478-2.615a4.788,4.788,0,0,1,.575-2.29A51.3,51.3,0,0,0,148.8,65.5c.25-5.871-.3-13.323-4.338-17.562-7.636-8.069-23.807-6.354-29.678,2.914C108.075,61.407,111.489,73.914,113.979,85.613Z" transform="translate(-39.802 -42.774)" fill="#dee9f0"/>
      <path id="Trazado_717194" data-name="Trazado 717194" d="M124.424,80.391c1.282,2.831,2.973,6.97,5.521,8.735a9.751,9.751,0,0,0,8.86,1.391c3.98-1.541,6-5.971,6.945-10.126a58.8,58.8,0,0,0,1.2-8.7c.3-4.164.666-9.41-1.824-12.732s-10.517-3.056-14.373-1.965C122.292,59.374,121.534,74,124.424,80.391Z" transform="translate(-41.689 -45.029)" fill="#ff9374"/>
      <path id="Trazado_717195" data-name="Trazado 717195" d="M142,70.151a32.382,32.382,0,0,0,.275,4.838c.108.774.833,2.648.266,3.148-.433.358.183.974.616.616.9-.741.458-1.2.225-2.39a30.425,30.425,0,0,1-.508-6.212.441.441,0,0,0-.833,0Z" transform="translate(-44.179 -47.305)" fill="#dd735b"/>
      <path id="Trazado_717196" data-name="Trazado 717196" d="M135.443,77.16a24.231,24.231,0,0,1,8.927.666,5.829,5.829,0,0,1,4.438,4.363c.508,2.023-.067,5.771-.658,8.4-.833,3.564-2.065,6.254-4.622,7.17a12.174,12.174,0,0,1-3.639.758c-3.256.075-6.753,0-9.435-1.815a13.386,13.386,0,0,1-4.313-5.929c-1.058-2.432-3.156-7.927-.991-10.317C126.974,78.442,133.095,77.376,135.443,77.16Z" transform="translate(-41.825 -48.502)" fill="#eaeef1"/>
      <path id="Trazado_717197" data-name="Trazado 717197" d="M111.323,69.514h8.41V66h-8.227s-.65,0-.758,1.94C110.648,69.672,111.323,69.514,111.323,69.514Z" transform="translate(-40.544 -46.66)" fill="#ff9374"/>
      <path id="Trazado_717198" data-name="Trazado 717198" d="M153.82,66.549a5.39,5.39,0,0,0-5.4-5.779H126.582a5.39,5.39,0,0,0-5.4,5.779s-.958,8.211,4.738,9.451,9.7.208,11.042-3.839c.674-2.048.774-2.5,1.357-2.5h1.024c.583,0,.7.591,1.374,2.64,1.341,4.047,2.715,5,8.41,3.731S153.82,66.549,153.82,66.549Z" transform="translate(-41.363 -45.785)" fill="#eaeef1"/>
      <path id="Trazado_717199" data-name="Trazado 717199" d="M152.073,66.824c.05-4.164-4.755-4.164-4.755-4.164H128.566s-4.8,0-4.746,4.164c0,0-.833,5.962,4.164,6.861s7.944.2,9.16-2.74c.55-1.374,1.157-1.8,1.665-1.865h.974c.491.067,1.107.491,1.665,1.865,1.182,2.939,1.5,3.639,6.5,2.74S152.073,66.824,152.073,66.824Z" transform="translate(-41.721 -46.101)" fill="#adce32"/>
      <path id="Trazado_717200" data-name="Trazado 717200" d="M106.23,97.808c6.512,8.169,17.662,11.908,27.912,11.866,7.494,0,16.479-3.681,17.262-12.324.05-.558-1.74-.716-1.882-.108-1.216,5.2-2.906,6.662-6.828,8.644-3.631,1.865-7.836,2.057-11.833,1.832-8.727-.491-16.654-3.331-22.408-10.076C107.979,97.109,106.23,97.808,106.23,97.808Z" transform="translate(-39.578 -51.821)" fill="#ff9374"/>
      <path id="Trazado_717201" data-name="Trazado 717201" d="M130.924,85.724c2.823.175,5.654.125,8.477.225,2.5.083,5.08.625,7.494-.05.583-.167.833-1.149.183-1.424-2.4-1.016-5.071-.741-7.653-.733a62.939,62.939,0,0,0-8.677.483c-.9.125-.608,1.449.2,1.5Z" transform="translate(-42.604 -49.621)" fill="#adce32"/>
      <path id="Trazado_717202" data-name="Trazado 717202" d="M129.564,92.235c5.887,1,13.04,1.615,18.944.566,1.066-.192.974-1.815,0-2.065-2.823-.733-5.754-.441-8.652-.391-3.331.067-6.662,0-9.992-.175-1.157-.05-1.457,1.865-.275,2.065Z" transform="translate(-42.403 -50.703)" fill="#adce32"/>
      <path id="Trazado_717203" data-name="Trazado 717203" d="M135.09,98.194a34.715,34.715,0,0,1,5.1-.158c1.574.083,3.114.433,4.663,0a.733.733,0,0,0,.167-1.324c-2.873-1.532-7.07-.833-10.167-.35-1.016.142-.783,1.89.242,1.8Z" transform="translate(-43.147 -51.641)" fill="#adce32"/>
      <path id="Trazado_717204" data-name="Trazado 717204" d="M129.444,67.41l2.548,2.548a.436.436,0,0,0,.616-.616l-2.548-2.548C129.669,66.394,129.044,67.019,129.444,67.41Z" transform="translate(-42.714 -46.771)" fill="#fff"/>
      <path id="Trazado_717205" data-name="Trazado 717205" d="M126.391,68.336l5,5a.441.441,0,0,0,.625-.616l-5-5a.441.441,0,0,0-.625.616Z" transform="translate(-42.339 -46.931)" fill="#fff"/>
      <path id="Trazado_717206" data-name="Trazado 717206" d="M132.068,65.456l2.423,2.432a.436.436,0,0,0,.616-.616l-2.432-2.432a.441.441,0,0,0-.624.616Z" transform="translate(-43.016 -46.449)" fill="#fff"/>
      <path id="Trazado_717207" data-name="Trazado 717207" d="M143.868,65.72l5.921,5.946a.436.436,0,1,0,.616-.616q-2.973-2.956-5.929-5.929a.441.441,0,0,0-.625.616Z" transform="translate(-44.294 -46.496)" fill="#fff"/>
      <path id="Trazado_717208" data-name="Trazado 717208" d="M148.894,67.241l1.782,1.782a.436.436,0,0,0,.616-.616c-.591-.6-1.191-1.191-1.782-1.782a.436.436,0,0,0-.616.616Z" transform="translate(-44.931 -46.743)" fill="#fff"/>
      <path id="Trazado_717209" data-name="Trazado 717209" d="M151.384,66.281c.341.341.683.674,1.016,1.016a.441.441,0,0,0,.625-.616L152,65.664a.436.436,0,1,0-.616.616Z" transform="translate(-45.228 -46.582)" fill="#fff"/>
      <path id="Trazado_717210" data-name="Trazado 717210" d="M301.55,187.055H276.827a1.307,1.307,0,0,1,0-2.615H301.55a1.307,1.307,0,1,1,0,2.615Z" transform="translate(-58.353 -65.357)" fill="#0b481e"/>
      <path id="Trazado_717211" data-name="Trazado 717211" d="M252.469,190.789c-1.282-1-.674-1.482-2.3-1.432s-3.273.516-4.846.125c-2.073-.516-3.9-2.5-5.962-1.932-1.932.5-3.114,2.973-4.572,4.105-2.157-.275-6.162-1.707-7.869-1.307-1.732,2.34-3.031,12.141-.791,13.815.633.483,7.753-.333,8.469,0,3.905,1.89,5.1.883,9.351,0,2.307-.475,2.09-.416,2.623-2.706a19.228,19.228,0,0,0,.216-7.136C248.106,194.17,255.051,192.8,252.469,190.789Z" transform="translate(-52.79 -65.785)" fill="#0b481e"/>
      <path id="Trazado_717212" data-name="Trazado 717212" d="M236.037,207.707c.358,4.588,12.382,3.447,12.491.575.167-3.431-.241-14.989-.258-18.395l29.469-1.524a9.335,9.335,0,0,0-.167-6.862c-.425-.891-36.539-1.041-38.937.291C234.472,184.125,235.746,203.926,236.037,207.707Z" transform="translate(-53.429 -64.685)" fill="#0b481e"/>
      <path id="Trazado_717213" data-name="Trazado 717213" d="M250.96,200.971c-.058-.266,1.274-.266,1.349-1.89.058-1.441-.616-1.382-.916-1.765,0,0,2.157-.475,2.19-2.207s-2.973-1.882-5.279-1.9c-2.84,0-4.222.45-4.222,1.665s1.665,1.6,2.8,2.04c-.724.083-3.706.383-3.706,1.749,0,1.94,2.3,1.9,2.69,2.107-2.282.291-3.731,1.749-3.131,2.44s5.679,1.491,6.986,1.416a1.924,1.924,0,0,0,2.073-1.965C251.884,201.579,251.068,201.462,250.96,200.971Z" transform="translate(-55.307 -66.724)" fill="#0b481e"/>
      <path id="Trazado_717214" data-name="Trazado 717214" d="M245.39,189.124c-.325-.724-1.507-.092-2.257-.358-.558-.2-2.34-.941-2.848-.708-1.924.891-4.164-.641-4.921-.083a7.5,7.5,0,0,0-2.357,3.564,5.2,5.2,0,0,0,1.341,5.171c1.665,1.765,3.689-4.413,3.864-4.547a28.367,28.367,0,0,0,4.488.092C243.791,192.138,245.865,190.156,245.39,189.124Z" transform="translate(-54.155 -65.879)" fill="#0b481e"/>
      <path id="Trazado_717215" data-name="Trazado 717215" d="M51.955,159.125c-5,22.4-6.087,49.13-4.563,58.073.833,5,9.584,2.7,14.581,1.707a133.233,133.233,0,0,1,11.075-53.968c2.432-5.571,12.857-23.89,17.487-39.778,3.656-12.557,3.214-23.882-4.447-24.232s-11.267,6.02-15.405,12.058C62.631,124.726,55,145.444,51.955,159.125Z" transform="translate(-34.177 -52.5)" fill="#dee9f0"/>
      <path id="Trazado_717216" data-name="Trazado 717216" d="M48.722,255.681c.3,2.315-.075,3.148,1.191,5.113s3.639,1.174,5.946.833,4.855,1.166,5.4-1.2a12.971,12.971,0,0,0,0-5.9c1.774-.458,3.331,2.64,3.331,2.64.741-1.665.766-5.4-.583-6.587-.633-.566-1.665-1.407-2.273-2.04-1.582-1.782,1.316-10.359.308-12.491-1.5-3.239-15.047-3.764-15.289-.833C46.307,240.06,48.364,252.983,48.722,255.681Z" transform="translate(-34.167 -73.021)" fill="#dee9f0"/>
      <path id="Trazado_717217" data-name="Trazado 717217" d="M91.315,143.238c3.805-8.594,8.569-17.762,9.676-27.2.716-6.129-1.341-13.19-5.579-15.821-.891-.541-3.747.142-2.856.65,7.544,4.3,7.544,13.731,5.421,21.176A213.163,213.163,0,0,1,90.8,143.454c-.216.533.275.3.516-.233Z" transform="translate(-41.536 -52.351)" fill="#dee9f0"/>
    </g>
  </g>
</svg>
